%FSLAX36Y36*%
G04 Gerber Fmt 3.6, Leading zero omitted, Abs format (unit inch)*
G04 Created by KiCad (PCBNEW (2014-jul-16 BZR unknown)-product) date Tue 27 Jan 2015 12:13:57 PM PST*
%MOIN*%
G01*
G04 APERTURE LIST*
%ADD10C,0.003937*%
%ADD11C,0.006000*%
%ADD12C,0.007874*%
%ADD13C,0.010000*%
%ADD14C,0.000100*%
%ADD15C,0.008000*%
G04 APERTURE END LIST*
D10*
D11*
X4185086Y-3121695D02*
X4185086Y-3081695D01*
X4202229Y-3121695D02*
X4202229Y-3100743D01*
X4200324Y-3096933D01*
X4196514Y-3095029D01*
X4190800Y-3095029D01*
X4186991Y-3096933D01*
X4185086Y-3098838D01*
X4238419Y-3121695D02*
X4238419Y-3100743D01*
X4236514Y-3096933D01*
X4232705Y-3095029D01*
X4225086Y-3095029D01*
X4221276Y-3096933D01*
X4238419Y-3119790D02*
X4234610Y-3121695D01*
X4225086Y-3121695D01*
X4221276Y-3119790D01*
X4219371Y-3115981D01*
X4219371Y-3112171D01*
X4221276Y-3108362D01*
X4225086Y-3106457D01*
X4234610Y-3106457D01*
X4238419Y-3104552D01*
X4257467Y-3121695D02*
X4257467Y-3095029D01*
X4257467Y-3102648D02*
X4259371Y-3098838D01*
X4261276Y-3096933D01*
X4265086Y-3095029D01*
X4268895Y-3095029D01*
X4299371Y-3121695D02*
X4299371Y-3081695D01*
X4299371Y-3119790D02*
X4295562Y-3121695D01*
X4287943Y-3121695D01*
X4284133Y-3119790D01*
X4282229Y-3117886D01*
X4280324Y-3114076D01*
X4280324Y-3102648D01*
X4282229Y-3098838D01*
X4284133Y-3096933D01*
X4287943Y-3095029D01*
X4295562Y-3095029D01*
X4299371Y-3096933D01*
X4314610Y-3095029D02*
X4322229Y-3121695D01*
X4329848Y-3102648D01*
X4337467Y-3121695D01*
X4345086Y-3095029D01*
X4377467Y-3121695D02*
X4377467Y-3100743D01*
X4375562Y-3096933D01*
X4371752Y-3095029D01*
X4364133Y-3095029D01*
X4360324Y-3096933D01*
X4377467Y-3119790D02*
X4373657Y-3121695D01*
X4364133Y-3121695D01*
X4360324Y-3119790D01*
X4358419Y-3115981D01*
X4358419Y-3112171D01*
X4360324Y-3108362D01*
X4364133Y-3106457D01*
X4373657Y-3106457D01*
X4377467Y-3104552D01*
X4396514Y-3121695D02*
X4396514Y-3095029D01*
X4396514Y-3102648D02*
X4398419Y-3098838D01*
X4400324Y-3096933D01*
X4404133Y-3095029D01*
X4407943Y-3095029D01*
X4436514Y-3119790D02*
X4432705Y-3121695D01*
X4425086Y-3121695D01*
X4421276Y-3119790D01*
X4419371Y-3115981D01*
X4419371Y-3100743D01*
X4421276Y-3096933D01*
X4425086Y-3095029D01*
X4432705Y-3095029D01*
X4436514Y-3096933D01*
X4438419Y-3100743D01*
X4438419Y-3104552D01*
X4419371Y-3108362D01*
X4154524Y-3068095D02*
X4150714Y-3066190D01*
X4148810Y-3064286D01*
X4146905Y-3060476D01*
X4146905Y-3049048D01*
X4148810Y-3045238D01*
X4150714Y-3043333D01*
X4154524Y-3041429D01*
X4160238Y-3041429D01*
X4164048Y-3043333D01*
X4165952Y-3045238D01*
X4167857Y-3049048D01*
X4167857Y-3060476D01*
X4165952Y-3064286D01*
X4164048Y-3066190D01*
X4160238Y-3068095D01*
X4154524Y-3068095D01*
X4185000Y-3041429D02*
X4185000Y-3081429D01*
X4185000Y-3043333D02*
X4188810Y-3041429D01*
X4196429Y-3041429D01*
X4200238Y-3043333D01*
X4202143Y-3045238D01*
X4204048Y-3049048D01*
X4204048Y-3060476D01*
X4202143Y-3064286D01*
X4200238Y-3066190D01*
X4196429Y-3068095D01*
X4188810Y-3068095D01*
X4185000Y-3066190D01*
X4236429Y-3066190D02*
X4232619Y-3068095D01*
X4225000Y-3068095D01*
X4221191Y-3066190D01*
X4219286Y-3062381D01*
X4219286Y-3047143D01*
X4221191Y-3043333D01*
X4225000Y-3041429D01*
X4232619Y-3041429D01*
X4236429Y-3043333D01*
X4238333Y-3047143D01*
X4238333Y-3050952D01*
X4219286Y-3054762D01*
X4255476Y-3041429D02*
X4255476Y-3068095D01*
X4255476Y-3045238D02*
X4257381Y-3043333D01*
X4261191Y-3041429D01*
X4266905Y-3041429D01*
X4270714Y-3043333D01*
X4272619Y-3047143D01*
X4272619Y-3068095D01*
X4320238Y-3066190D02*
X4324048Y-3068095D01*
X4331667Y-3068095D01*
X4335476Y-3066190D01*
X4337381Y-3062381D01*
X4337381Y-3060476D01*
X4335476Y-3056667D01*
X4331667Y-3054762D01*
X4325952Y-3054762D01*
X4322143Y-3052857D01*
X4320238Y-3049048D01*
X4320238Y-3047143D01*
X4322143Y-3043333D01*
X4325952Y-3041429D01*
X4331667Y-3041429D01*
X4335476Y-3043333D01*
X4360238Y-3068095D02*
X4356429Y-3066190D01*
X4354524Y-3064286D01*
X4352619Y-3060476D01*
X4352619Y-3049048D01*
X4354524Y-3045238D01*
X4356429Y-3043333D01*
X4360238Y-3041429D01*
X4365952Y-3041429D01*
X4369762Y-3043333D01*
X4371667Y-3045238D01*
X4373571Y-3049048D01*
X4373571Y-3060476D01*
X4371667Y-3064286D01*
X4369762Y-3066190D01*
X4365952Y-3068095D01*
X4360238Y-3068095D01*
X4407857Y-3041429D02*
X4407857Y-3068095D01*
X4390714Y-3041429D02*
X4390714Y-3062381D01*
X4392619Y-3066190D01*
X4396429Y-3068095D01*
X4402143Y-3068095D01*
X4405952Y-3066190D01*
X4407857Y-3064286D01*
X4426905Y-3068095D02*
X4426905Y-3041429D01*
X4426905Y-3049048D02*
X4428810Y-3045238D01*
X4430714Y-3043333D01*
X4434524Y-3041429D01*
X4438333Y-3041429D01*
X4468809Y-3066190D02*
X4465000Y-3068095D01*
X4457381Y-3068095D01*
X4453571Y-3066190D01*
X4451667Y-3064286D01*
X4449762Y-3060476D01*
X4449762Y-3049048D01*
X4451667Y-3045238D01*
X4453571Y-3043333D01*
X4457381Y-3041429D01*
X4465000Y-3041429D01*
X4468809Y-3043333D01*
X4501190Y-3066190D02*
X4497381Y-3068095D01*
X4489762Y-3068095D01*
X4485952Y-3066190D01*
X4484048Y-3062381D01*
X4484048Y-3047143D01*
X4485952Y-3043333D01*
X4489762Y-3041429D01*
X4497381Y-3041429D01*
X4501190Y-3043333D01*
X4503095Y-3047143D01*
X4503095Y-3050952D01*
X4484048Y-3054762D01*
X4107619Y-2523190D02*
X4113333Y-2525095D01*
X4122857Y-2525095D01*
X4126667Y-2523190D01*
X4128571Y-2521286D01*
X4130476Y-2517476D01*
X4130476Y-2513667D01*
X4128571Y-2509857D01*
X4126667Y-2507952D01*
X4122857Y-2506048D01*
X4115238Y-2504143D01*
X4111429Y-2502238D01*
X4109524Y-2500333D01*
X4107619Y-2496524D01*
X4107619Y-2492714D01*
X4109524Y-2488905D01*
X4111429Y-2487000D01*
X4115238Y-2485095D01*
X4124762Y-2485095D01*
X4130476Y-2487000D01*
X4155238Y-2485095D02*
X4162857Y-2485095D01*
X4166667Y-2487000D01*
X4170476Y-2490810D01*
X4172381Y-2498429D01*
X4172381Y-2511762D01*
X4170476Y-2519381D01*
X4166667Y-2523190D01*
X4162857Y-2525095D01*
X4155238Y-2525095D01*
X4151429Y-2523190D01*
X4147619Y-2519381D01*
X4145714Y-2511762D01*
X4145714Y-2498429D01*
X4147619Y-2490810D01*
X4151429Y-2487000D01*
X4155238Y-2485095D01*
X4189524Y-2525095D02*
X4189524Y-2485095D01*
X4212381Y-2525095D01*
X4212381Y-2485095D01*
X4229524Y-2513667D02*
X4248571Y-2513667D01*
X4225714Y-2525095D02*
X4239048Y-2485095D01*
X4252381Y-2525095D01*
X4288571Y-2525095D02*
X4275238Y-2506048D01*
X4265714Y-2525095D02*
X4265714Y-2485095D01*
X4280952Y-2485095D01*
X4284762Y-2487000D01*
X4286667Y-2488905D01*
X4288571Y-2492714D01*
X4288571Y-2498429D01*
X4286667Y-2502238D01*
X4284762Y-2504143D01*
X4280952Y-2506048D01*
X4265714Y-2506048D01*
X4296190Y-2528905D02*
X4326667Y-2528905D01*
X4359048Y-2525095D02*
X4345714Y-2506048D01*
X4336190Y-2525095D02*
X4336190Y-2485095D01*
X4351429Y-2485095D01*
X4355238Y-2487000D01*
X4357143Y-2488905D01*
X4359048Y-2492714D01*
X4359048Y-2498429D01*
X4357143Y-2502238D01*
X4355238Y-2504143D01*
X4351429Y-2506048D01*
X4336190Y-2506048D01*
X4376190Y-2525095D02*
X4376190Y-2485095D01*
X4393333Y-2523190D02*
X4399048Y-2525095D01*
X4408571Y-2525095D01*
X4412381Y-2523190D01*
X4414286Y-2521286D01*
X4416190Y-2517476D01*
X4416190Y-2513667D01*
X4414286Y-2509857D01*
X4412381Y-2507952D01*
X4408571Y-2506048D01*
X4400952Y-2504143D01*
X4397143Y-2502238D01*
X4395238Y-2500333D01*
X4393333Y-2496524D01*
X4393333Y-2492714D01*
X4395238Y-2488905D01*
X4397143Y-2487000D01*
X4400952Y-2485095D01*
X4410476Y-2485095D01*
X4416190Y-2487000D01*
X4433333Y-2504143D02*
X4446667Y-2504143D01*
X4452381Y-2525095D02*
X4433333Y-2525095D01*
X4433333Y-2485095D01*
X4452381Y-2485095D01*
X4492381Y-2525095D02*
X4479048Y-2506048D01*
X4469524Y-2525095D02*
X4469524Y-2485095D01*
X4484762Y-2485095D01*
X4488571Y-2487000D01*
X4490476Y-2488905D01*
X4492381Y-2492714D01*
X4492381Y-2498429D01*
X4490476Y-2502238D01*
X4488571Y-2504143D01*
X4484762Y-2506048D01*
X4469524Y-2506048D01*
X4052381Y-2587095D02*
X4039048Y-2568048D01*
X4029524Y-2587095D02*
X4029524Y-2547095D01*
X4044762Y-2547095D01*
X4048571Y-2549000D01*
X4050476Y-2550905D01*
X4052381Y-2554714D01*
X4052381Y-2560429D01*
X4050476Y-2564238D01*
X4048571Y-2566143D01*
X4044762Y-2568048D01*
X4029524Y-2568048D01*
X4069524Y-2566143D02*
X4082857Y-2566143D01*
X4088571Y-2587095D02*
X4069524Y-2587095D01*
X4069524Y-2547095D01*
X4088571Y-2547095D01*
X4100000Y-2547095D02*
X4113333Y-2587095D01*
X4126667Y-2547095D01*
X4168571Y-2575667D02*
X4187619Y-2575667D01*
X4164762Y-2587095D02*
X4178095Y-2547095D01*
X4191429Y-2587095D01*
X4204762Y-2583286D02*
X4206667Y-2585190D01*
X4204762Y-2587095D01*
X4202857Y-2585190D01*
X4204762Y-2583286D01*
X4204762Y-2587095D01*
X4252381Y-2550905D02*
X4254286Y-2549000D01*
X4258095Y-2547095D01*
X4267619Y-2547095D01*
X4271429Y-2549000D01*
X4273333Y-2550905D01*
X4275238Y-2554714D01*
X4275238Y-2558524D01*
X4273333Y-2564238D01*
X4250476Y-2587095D01*
X4275238Y-2587095D01*
X4311429Y-2547095D02*
X4292381Y-2547095D01*
X4290476Y-2566143D01*
X4292381Y-2564238D01*
X4296191Y-2562333D01*
X4305714Y-2562333D01*
X4309524Y-2564238D01*
X4311429Y-2566143D01*
X4313333Y-2569952D01*
X4313333Y-2579476D01*
X4311429Y-2583286D01*
X4309524Y-2585190D01*
X4305714Y-2587095D01*
X4296191Y-2587095D01*
X4292381Y-2585190D01*
X4290476Y-2583286D01*
X4341905Y-2547095D02*
X4341905Y-2575667D01*
X4340000Y-2581381D01*
X4336191Y-2585190D01*
X4330476Y-2587095D01*
X4326667Y-2587095D01*
X4359048Y-2575667D02*
X4378095Y-2575667D01*
X4355238Y-2587095D02*
X4368571Y-2547095D01*
X4381905Y-2587095D01*
X4395238Y-2587095D02*
X4395238Y-2547095D01*
X4418095Y-2587095D01*
X4418095Y-2547095D01*
X4435238Y-2550905D02*
X4437143Y-2549000D01*
X4440952Y-2547095D01*
X4450476Y-2547095D01*
X4454286Y-2549000D01*
X4456190Y-2550905D01*
X4458095Y-2554714D01*
X4458095Y-2558524D01*
X4456190Y-2564238D01*
X4433333Y-2587095D01*
X4458095Y-2587095D01*
X4482857Y-2547095D02*
X4486667Y-2547095D01*
X4490476Y-2549000D01*
X4492381Y-2550905D01*
X4494286Y-2554714D01*
X4496190Y-2562333D01*
X4496190Y-2571857D01*
X4494286Y-2579476D01*
X4492381Y-2583286D01*
X4490476Y-2585190D01*
X4486667Y-2587095D01*
X4482857Y-2587095D01*
X4479048Y-2585190D01*
X4477143Y-2583286D01*
X4475238Y-2579476D01*
X4473333Y-2571857D01*
X4473333Y-2562333D01*
X4475238Y-2554714D01*
X4477143Y-2550905D01*
X4479048Y-2549000D01*
X4482857Y-2547095D01*
X4534286Y-2587095D02*
X4511429Y-2587095D01*
X4522857Y-2587095D02*
X4522857Y-2547095D01*
X4519048Y-2552810D01*
X4515238Y-2556619D01*
X4511429Y-2558524D01*
X4570476Y-2547095D02*
X4551429Y-2547095D01*
X4549524Y-2566143D01*
X4551429Y-2564238D01*
X4555238Y-2562333D01*
X4564762Y-2562333D01*
X4568571Y-2564238D01*
X4570476Y-2566143D01*
X4572381Y-2569952D01*
X4572381Y-2579476D01*
X4570476Y-2583286D01*
X4568571Y-2585190D01*
X4564762Y-2587095D01*
X4555238Y-2587095D01*
X4551429Y-2585190D01*
X4549524Y-2583286D01*
X4130476Y-2664333D02*
X4128571Y-2662429D01*
X4124762Y-2656714D01*
X4122857Y-2652905D01*
X4120952Y-2647190D01*
X4119048Y-2637667D01*
X4119048Y-2630048D01*
X4120952Y-2620524D01*
X4122857Y-2614810D01*
X4124762Y-2611000D01*
X4128571Y-2605286D01*
X4130476Y-2603381D01*
X4168571Y-2645286D02*
X4166667Y-2647190D01*
X4160952Y-2649095D01*
X4157143Y-2649095D01*
X4151429Y-2647190D01*
X4147619Y-2643381D01*
X4145714Y-2639571D01*
X4143810Y-2631952D01*
X4143810Y-2626238D01*
X4145714Y-2618619D01*
X4147619Y-2614810D01*
X4151429Y-2611000D01*
X4157143Y-2609095D01*
X4160952Y-2609095D01*
X4166667Y-2611000D01*
X4168571Y-2612905D01*
X4181905Y-2664333D02*
X4183810Y-2662429D01*
X4187619Y-2656714D01*
X4189524Y-2652905D01*
X4191429Y-2647190D01*
X4193333Y-2637667D01*
X4193333Y-2630048D01*
X4191429Y-2620524D01*
X4189524Y-2614810D01*
X4187619Y-2611000D01*
X4183810Y-2605286D01*
X4181905Y-2603381D01*
X4240952Y-2612905D02*
X4242857Y-2611000D01*
X4246667Y-2609095D01*
X4256190Y-2609095D01*
X4260000Y-2611000D01*
X4261905Y-2612905D01*
X4263810Y-2616714D01*
X4263810Y-2620524D01*
X4261905Y-2626238D01*
X4239048Y-2649095D01*
X4263810Y-2649095D01*
X4288571Y-2609095D02*
X4292381Y-2609095D01*
X4296190Y-2611000D01*
X4298095Y-2612905D01*
X4300000Y-2616714D01*
X4301905Y-2624333D01*
X4301905Y-2633857D01*
X4300000Y-2641476D01*
X4298095Y-2645286D01*
X4296190Y-2647190D01*
X4292381Y-2649095D01*
X4288571Y-2649095D01*
X4284762Y-2647190D01*
X4282857Y-2645286D01*
X4280952Y-2641476D01*
X4279048Y-2633857D01*
X4279048Y-2624333D01*
X4280952Y-2616714D01*
X4282857Y-2612905D01*
X4284762Y-2611000D01*
X4288571Y-2609095D01*
X4340000Y-2649095D02*
X4317143Y-2649095D01*
X4328571Y-2649095D02*
X4328571Y-2609095D01*
X4324762Y-2614810D01*
X4320952Y-2618619D01*
X4317143Y-2620524D01*
X4376190Y-2609095D02*
X4357143Y-2609095D01*
X4355238Y-2628143D01*
X4357143Y-2626238D01*
X4360952Y-2624333D01*
X4370476Y-2624333D01*
X4374286Y-2626238D01*
X4376190Y-2628143D01*
X4378095Y-2631952D01*
X4378095Y-2641476D01*
X4376190Y-2645286D01*
X4374286Y-2647190D01*
X4370476Y-2649095D01*
X4360952Y-2649095D01*
X4357143Y-2647190D01*
X4355238Y-2645286D01*
X4439048Y-2628143D02*
X4444762Y-2630048D01*
X4446667Y-2631952D01*
X4448571Y-2635762D01*
X4448571Y-2641476D01*
X4446667Y-2645286D01*
X4444762Y-2647190D01*
X4440952Y-2649095D01*
X4425714Y-2649095D01*
X4425714Y-2609095D01*
X4439048Y-2609095D01*
X4442857Y-2611000D01*
X4444762Y-2612905D01*
X4446667Y-2616714D01*
X4446667Y-2620524D01*
X4444762Y-2624333D01*
X4442857Y-2626238D01*
X4439048Y-2628143D01*
X4425714Y-2628143D01*
X4473333Y-2630048D02*
X4473333Y-2649095D01*
X4460000Y-2609095D02*
X4473333Y-2630048D01*
X4486667Y-2609095D01*
X4183810Y-2673000D02*
X4180000Y-2671095D01*
X4174286Y-2671095D01*
X4168571Y-2673000D01*
X4164762Y-2676810D01*
X4162857Y-2680619D01*
X4160952Y-2688238D01*
X4160952Y-2693952D01*
X4162857Y-2701571D01*
X4164762Y-2705381D01*
X4168571Y-2709190D01*
X4174286Y-2711095D01*
X4178095Y-2711095D01*
X4183810Y-2709190D01*
X4185714Y-2707286D01*
X4185714Y-2693952D01*
X4178095Y-2693952D01*
X4225714Y-2711095D02*
X4212381Y-2692048D01*
X4202857Y-2711095D02*
X4202857Y-2671095D01*
X4218095Y-2671095D01*
X4221905Y-2673000D01*
X4223810Y-2674905D01*
X4225714Y-2678714D01*
X4225714Y-2684429D01*
X4223810Y-2688238D01*
X4221905Y-2690143D01*
X4218095Y-2692048D01*
X4202857Y-2692048D01*
X4240952Y-2699667D02*
X4260000Y-2699667D01*
X4237143Y-2711095D02*
X4250476Y-2671095D01*
X4263810Y-2711095D01*
X4277143Y-2711095D02*
X4277143Y-2671095D01*
X4290476Y-2699667D01*
X4303810Y-2671095D01*
X4303810Y-2711095D01*
X4341905Y-2711095D02*
X4322857Y-2711095D01*
X4322857Y-2671095D01*
X4355238Y-2711095D02*
X4355238Y-2671095D01*
X4397143Y-2707286D02*
X4395238Y-2709190D01*
X4389524Y-2711095D01*
X4385714Y-2711095D01*
X4380000Y-2709190D01*
X4376191Y-2705381D01*
X4374286Y-2701571D01*
X4372381Y-2693952D01*
X4372381Y-2688238D01*
X4374286Y-2680619D01*
X4376191Y-2676810D01*
X4380000Y-2673000D01*
X4385714Y-2671095D01*
X4389524Y-2671095D01*
X4395238Y-2673000D01*
X4397143Y-2674905D01*
X4414286Y-2711095D02*
X4414286Y-2671095D01*
X4414286Y-2690143D02*
X4437143Y-2690143D01*
X4437143Y-2711095D02*
X4437143Y-2671095D01*
X4304524Y-2222143D02*
X4317857Y-2222143D01*
X4323571Y-2243095D02*
X4304524Y-2243095D01*
X4304524Y-2203095D01*
X4323571Y-2203095D01*
X4363571Y-2239286D02*
X4361667Y-2241190D01*
X4355952Y-2243095D01*
X4352143Y-2243095D01*
X4346429Y-2241190D01*
X4342619Y-2237381D01*
X4340714Y-2233571D01*
X4338810Y-2225952D01*
X4338810Y-2220238D01*
X4340714Y-2212619D01*
X4342619Y-2208810D01*
X4346429Y-2205000D01*
X4352143Y-2203095D01*
X4355952Y-2203095D01*
X4361667Y-2205000D01*
X4363571Y-2206905D01*
X4380714Y-2243095D02*
X4380714Y-2203095D01*
X4380714Y-2222143D02*
X4403571Y-2222143D01*
X4403571Y-2243095D02*
X4403571Y-2203095D01*
X4430238Y-2203095D02*
X4437857Y-2203095D01*
X4441667Y-2205000D01*
X4445476Y-2208810D01*
X4447381Y-2216429D01*
X4447381Y-2229762D01*
X4445476Y-2237381D01*
X4441667Y-2241190D01*
X4437857Y-2243095D01*
X4430238Y-2243095D01*
X4426429Y-2241190D01*
X4422619Y-2237381D01*
X4420714Y-2229762D01*
X4420714Y-2216429D01*
X4422619Y-2208810D01*
X4426429Y-2205000D01*
X4430238Y-2203095D01*
X4339048Y-2103095D02*
X4361905Y-2103095D01*
X4350476Y-2143095D02*
X4350476Y-2103095D01*
X4398095Y-2143095D02*
X4384762Y-2124048D01*
X4375238Y-2143095D02*
X4375238Y-2103095D01*
X4390476Y-2103095D01*
X4394286Y-2105000D01*
X4396190Y-2106905D01*
X4398095Y-2110714D01*
X4398095Y-2116429D01*
X4396190Y-2120238D01*
X4394286Y-2122143D01*
X4390476Y-2124048D01*
X4375238Y-2124048D01*
X4415238Y-2143095D02*
X4415238Y-2103095D01*
X4455238Y-2105000D02*
X4451429Y-2103095D01*
X4445714Y-2103095D01*
X4440000Y-2105000D01*
X4436191Y-2108810D01*
X4434286Y-2112619D01*
X4432381Y-2120238D01*
X4432381Y-2125952D01*
X4434286Y-2133571D01*
X4436191Y-2137381D01*
X4440000Y-2141190D01*
X4445714Y-2143095D01*
X4449524Y-2143095D01*
X4455238Y-2141190D01*
X4457143Y-2139286D01*
X4457143Y-2125952D01*
X4449524Y-2125952D01*
X4369524Y-2005000D02*
X4365714Y-2003095D01*
X4360000Y-2003095D01*
X4354286Y-2005000D01*
X4350476Y-2008810D01*
X4348571Y-2012619D01*
X4346667Y-2020238D01*
X4346667Y-2025952D01*
X4348571Y-2033571D01*
X4350476Y-2037381D01*
X4354286Y-2041190D01*
X4360000Y-2043095D01*
X4363810Y-2043095D01*
X4369524Y-2041190D01*
X4371429Y-2039286D01*
X4371429Y-2025952D01*
X4363810Y-2025952D01*
X4388571Y-2043095D02*
X4388571Y-2003095D01*
X4411429Y-2043095D01*
X4411429Y-2003095D01*
X4430476Y-2043095D02*
X4430476Y-2003095D01*
X4440000Y-2003095D01*
X4445714Y-2005000D01*
X4449524Y-2008810D01*
X4451429Y-2012619D01*
X4453333Y-2020238D01*
X4453333Y-2025952D01*
X4451429Y-2033571D01*
X4449524Y-2037381D01*
X4445714Y-2041190D01*
X4440000Y-2043095D01*
X4430476Y-2043095D01*
X4096667Y-3428095D02*
X4110000Y-3468095D01*
X4123333Y-3428095D01*
X4159524Y-3464286D02*
X4157619Y-3466190D01*
X4151905Y-3468095D01*
X4148095Y-3468095D01*
X4142381Y-3466190D01*
X4138571Y-3462381D01*
X4136667Y-3458571D01*
X4134762Y-3450952D01*
X4134762Y-3445238D01*
X4136667Y-3437619D01*
X4138571Y-3433810D01*
X4142381Y-3430000D01*
X4148095Y-3428095D01*
X4151905Y-3428095D01*
X4157619Y-3430000D01*
X4159524Y-3431905D01*
X4199524Y-3464286D02*
X4197619Y-3466190D01*
X4191905Y-3468095D01*
X4188095Y-3468095D01*
X4182381Y-3466190D01*
X4178571Y-3462381D01*
X4176667Y-3458571D01*
X4174762Y-3450952D01*
X4174762Y-3445238D01*
X4176667Y-3437619D01*
X4178571Y-3433810D01*
X4182381Y-3430000D01*
X4188095Y-3428095D01*
X4191905Y-3428095D01*
X4197619Y-3430000D01*
X4199524Y-3431905D01*
X4469524Y-3530000D02*
X4465714Y-3528095D01*
X4460000Y-3528095D01*
X4454286Y-3530000D01*
X4450476Y-3533810D01*
X4448571Y-3537619D01*
X4446667Y-3545238D01*
X4446667Y-3550952D01*
X4448571Y-3558571D01*
X4450476Y-3562381D01*
X4454286Y-3566190D01*
X4460000Y-3568095D01*
X4463810Y-3568095D01*
X4469524Y-3566190D01*
X4471429Y-3564286D01*
X4471429Y-3550952D01*
X4463810Y-3550952D01*
X4488571Y-3568095D02*
X4488571Y-3528095D01*
X4511429Y-3568095D01*
X4511429Y-3528095D01*
X4530476Y-3568095D02*
X4530476Y-3528095D01*
X4540000Y-3528095D01*
X4545714Y-3530000D01*
X4549524Y-3533810D01*
X4551429Y-3537619D01*
X4553333Y-3545238D01*
X4553333Y-3550952D01*
X4551429Y-3558571D01*
X4549524Y-3562381D01*
X4545714Y-3566190D01*
X4540000Y-3568095D01*
X4530476Y-3568095D01*
X4439048Y-3428095D02*
X4461905Y-3428095D01*
X4450476Y-3468095D02*
X4450476Y-3428095D01*
X4498095Y-3468095D02*
X4484762Y-3449048D01*
X4475238Y-3468095D02*
X4475238Y-3428095D01*
X4490476Y-3428095D01*
X4494286Y-3430000D01*
X4496190Y-3431905D01*
X4498095Y-3435714D01*
X4498095Y-3441429D01*
X4496190Y-3445238D01*
X4494286Y-3447143D01*
X4490476Y-3449048D01*
X4475238Y-3449048D01*
X4515238Y-3468095D02*
X4515238Y-3428095D01*
X4555238Y-3430000D02*
X4551429Y-3428095D01*
X4545714Y-3428095D01*
X4540000Y-3430000D01*
X4536191Y-3433810D01*
X4534286Y-3437619D01*
X4532381Y-3445238D01*
X4532381Y-3450952D01*
X4534286Y-3458571D01*
X4536191Y-3462381D01*
X4540000Y-3466190D01*
X4545714Y-3468095D01*
X4549524Y-3468095D01*
X4555238Y-3466190D01*
X4557143Y-3464286D01*
X4557143Y-3450952D01*
X4549524Y-3450952D01*
X4054524Y-3547143D02*
X4067857Y-3547143D01*
X4073571Y-3568095D02*
X4054524Y-3568095D01*
X4054524Y-3528095D01*
X4073571Y-3528095D01*
X4113571Y-3564286D02*
X4111667Y-3566190D01*
X4105952Y-3568095D01*
X4102143Y-3568095D01*
X4096429Y-3566190D01*
X4092619Y-3562381D01*
X4090714Y-3558571D01*
X4088810Y-3550952D01*
X4088810Y-3545238D01*
X4090714Y-3537619D01*
X4092619Y-3533810D01*
X4096429Y-3530000D01*
X4102143Y-3528095D01*
X4105952Y-3528095D01*
X4111667Y-3530000D01*
X4113571Y-3531905D01*
X4130714Y-3568095D02*
X4130714Y-3528095D01*
X4130714Y-3547143D02*
X4153571Y-3547143D01*
X4153571Y-3568095D02*
X4153571Y-3528095D01*
X4180238Y-3528095D02*
X4187857Y-3528095D01*
X4191667Y-3530000D01*
X4195476Y-3533810D01*
X4197381Y-3541429D01*
X4197381Y-3554762D01*
X4195476Y-3562381D01*
X4191667Y-3566190D01*
X4187857Y-3568095D01*
X4180238Y-3568095D01*
X4176429Y-3566190D01*
X4172619Y-3562381D01*
X4170714Y-3554762D01*
X4170714Y-3541429D01*
X4172619Y-3533810D01*
X4176429Y-3530000D01*
X4180238Y-3528095D01*
X4346667Y-2303095D02*
X4360000Y-2343095D01*
X4373333Y-2303095D01*
X4409524Y-2339286D02*
X4407619Y-2341190D01*
X4401905Y-2343095D01*
X4398095Y-2343095D01*
X4392381Y-2341190D01*
X4388571Y-2337381D01*
X4386667Y-2333571D01*
X4384762Y-2325952D01*
X4384762Y-2320238D01*
X4386667Y-2312619D01*
X4388571Y-2308810D01*
X4392381Y-2305000D01*
X4398095Y-2303095D01*
X4401905Y-2303095D01*
X4407619Y-2305000D01*
X4409524Y-2306905D01*
X4449524Y-2339286D02*
X4447619Y-2341190D01*
X4441905Y-2343095D01*
X4438095Y-2343095D01*
X4432381Y-2341190D01*
X4428571Y-2337381D01*
X4426667Y-2333571D01*
X4424762Y-2325952D01*
X4424762Y-2320238D01*
X4426667Y-2312619D01*
X4428571Y-2308810D01*
X4432381Y-2305000D01*
X4438095Y-2303095D01*
X4441905Y-2303095D01*
X4447619Y-2305000D01*
X4449524Y-2306905D01*
D12*
X3937008Y-3937008D02*
X3937008Y-1968504D01*
X4724409Y-3937008D02*
X3937008Y-3937008D01*
X4724409Y-1968504D02*
X4724409Y-3937008D01*
X3937008Y-1968504D02*
X4724409Y-1968504D01*
D13*
X4577559Y-2285039D02*
X4577559Y-1985039D01*
X4477559Y-2285039D02*
X4477559Y-1985039D01*
X4477559Y-2385039D02*
X4477559Y-2285039D01*
X4577559Y-1985039D02*
X4477559Y-1985039D01*
X4477559Y-2285039D02*
X4577559Y-2285039D01*
X4477559Y-2385039D02*
X4577559Y-2385039D01*
X4577559Y-2385039D02*
X4577559Y-2285039D01*
D14*
G36*
X4249200Y-3012300D02*
X4250600Y-3011600D01*
X4253500Y-3009700D01*
X4257700Y-3007000D01*
X4262600Y-3003700D01*
X4267500Y-3000300D01*
X4271600Y-2997600D01*
X4274500Y-2995800D01*
X4275700Y-2995100D01*
X4276300Y-2995400D01*
X4278700Y-2996500D01*
X4282100Y-2998300D01*
X4284000Y-2999300D01*
X4287200Y-3000700D01*
X4288700Y-3000900D01*
X4289000Y-3000500D01*
X4290100Y-2998100D01*
X4291900Y-2994000D01*
X4294300Y-2988600D01*
X4297000Y-2982200D01*
X4299900Y-2975400D01*
X4302800Y-2968400D01*
X4305600Y-2961800D01*
X4308000Y-2955800D01*
X4310000Y-2950900D01*
X4311300Y-2947500D01*
X4311700Y-2946100D01*
X4311600Y-2945800D01*
X4310000Y-2944200D01*
X4307300Y-2942200D01*
X4301400Y-2937400D01*
X4295500Y-2930100D01*
X4292000Y-2921800D01*
X4290800Y-2912600D01*
X4291800Y-2904100D01*
X4295200Y-2895900D01*
X4300900Y-2888600D01*
X4307800Y-2883100D01*
X4315900Y-2879600D01*
X4325000Y-2878500D01*
X4333700Y-2879500D01*
X4342100Y-2882800D01*
X4349400Y-2888400D01*
X4352500Y-2892000D01*
X4356800Y-2899500D01*
X4359300Y-2907400D01*
X4359500Y-2909500D01*
X4359200Y-2918200D01*
X4356600Y-2926600D01*
X4351900Y-2934200D01*
X4345500Y-2940300D01*
X4344700Y-2940900D01*
X4341700Y-2943100D01*
X4339700Y-2944700D01*
X4338200Y-2946000D01*
X4349300Y-2972900D01*
X4351100Y-2977200D01*
X4354200Y-2984500D01*
X4356900Y-2990800D01*
X4359000Y-2995900D01*
X4360500Y-2999300D01*
X4361200Y-3000600D01*
X4361300Y-3000700D01*
X4362200Y-3000900D01*
X4364300Y-3000100D01*
X4368000Y-2998300D01*
X4370500Y-2997000D01*
X4373400Y-2995600D01*
X4374700Y-2995100D01*
X4375800Y-2995700D01*
X4378500Y-2997500D01*
X4382500Y-3000200D01*
X4387300Y-3003400D01*
X4391900Y-3006600D01*
X4396100Y-3009300D01*
X4399200Y-3011300D01*
X4400700Y-3012100D01*
X4400900Y-3012100D01*
X4402300Y-3011400D01*
X4404700Y-3009300D01*
X4408300Y-3005900D01*
X4413500Y-3000800D01*
X4414300Y-3000000D01*
X4418600Y-2995600D01*
X4422000Y-2992000D01*
X4424400Y-2989400D01*
X4425200Y-2988200D01*
X4425200Y-2988200D01*
X4424400Y-2986800D01*
X4422500Y-2983700D01*
X4419700Y-2979400D01*
X4416300Y-2974400D01*
X4407400Y-2961500D01*
X4412300Y-2949300D01*
X4413800Y-2945500D01*
X4415700Y-2941000D01*
X4417100Y-2937800D01*
X4417800Y-2936300D01*
X4419200Y-2935900D01*
X4422500Y-2935100D01*
X4427300Y-2934100D01*
X4433100Y-2933000D01*
X4438600Y-2932000D01*
X4443600Y-2931000D01*
X4447200Y-2930300D01*
X4448800Y-2930000D01*
X4449200Y-2929800D01*
X4449500Y-2929000D01*
X4449800Y-2927300D01*
X4449900Y-2924300D01*
X4449900Y-2919500D01*
X4449900Y-2912600D01*
X4449900Y-2911900D01*
X4449900Y-2905300D01*
X4449800Y-2900100D01*
X4449600Y-2896700D01*
X4449400Y-2895300D01*
X4449300Y-2895300D01*
X4447800Y-2894900D01*
X4444300Y-2894200D01*
X4439300Y-2893200D01*
X4433400Y-2892100D01*
X4433000Y-2892000D01*
X4427100Y-2890900D01*
X4422100Y-2889800D01*
X4418700Y-2889000D01*
X4417200Y-2888600D01*
X4416900Y-2888200D01*
X4415700Y-2885900D01*
X4414000Y-2882200D01*
X4412000Y-2877700D01*
X4410100Y-2873100D01*
X4408400Y-2868900D01*
X4407300Y-2865800D01*
X4407000Y-2864400D01*
X4407000Y-2864300D01*
X4407900Y-2862900D01*
X4409900Y-2859900D01*
X4412800Y-2855600D01*
X4416200Y-2850600D01*
X4416500Y-2850200D01*
X4419900Y-2845200D01*
X4422700Y-2841000D01*
X4424500Y-2838000D01*
X4425200Y-2836600D01*
X4425200Y-2836500D01*
X4424100Y-2835000D01*
X4421500Y-2832200D01*
X4417900Y-2828400D01*
X4413500Y-2824000D01*
X4412100Y-2822600D01*
X4407200Y-2817900D01*
X4403900Y-2814700D01*
X4401800Y-2813100D01*
X4400800Y-2812700D01*
X4400700Y-2812800D01*
X4399200Y-2813700D01*
X4396100Y-2815700D01*
X4391800Y-2818600D01*
X4386700Y-2822100D01*
X4386300Y-2822300D01*
X4381400Y-2825700D01*
X4377200Y-2828500D01*
X4374200Y-2830500D01*
X4372900Y-2831300D01*
X4372700Y-2831300D01*
X4370700Y-2830700D01*
X4367100Y-2829400D01*
X4362800Y-2827700D01*
X4358100Y-2825900D01*
X4353900Y-2824100D01*
X4350800Y-2822600D01*
X4349300Y-2821800D01*
X4349300Y-2821700D01*
X4348700Y-2819900D01*
X4347900Y-2816200D01*
X4346800Y-2811100D01*
X4345600Y-2804900D01*
X4345500Y-2804000D01*
X4344300Y-2798000D01*
X4343400Y-2793100D01*
X4342700Y-2789700D01*
X4342300Y-2788300D01*
X4341500Y-2788100D01*
X4338600Y-2787900D01*
X4334100Y-2787800D01*
X4328800Y-2787700D01*
X4323100Y-2787700D01*
X4317600Y-2787900D01*
X4312900Y-2788000D01*
X4309500Y-2788300D01*
X4308100Y-2788500D01*
X4308100Y-2788600D01*
X4307500Y-2790500D01*
X4306700Y-2794200D01*
X4305700Y-2799400D01*
X4304500Y-2805500D01*
X4304300Y-2806600D01*
X4303200Y-2812500D01*
X4302200Y-2817400D01*
X4301400Y-2820800D01*
X4301100Y-2822100D01*
X4300500Y-2822400D01*
X4298100Y-2823400D01*
X4294100Y-2825100D01*
X4289200Y-2827100D01*
X4277700Y-2831700D01*
X4263700Y-2822100D01*
X4262400Y-2821200D01*
X4257400Y-2817800D01*
X4253200Y-2815000D01*
X4250300Y-2813200D01*
X4249100Y-2812500D01*
X4249000Y-2812500D01*
X4247600Y-2813800D01*
X4244900Y-2816400D01*
X4241100Y-2820100D01*
X4236600Y-2824500D01*
X4233400Y-2827700D01*
X4229500Y-2831700D01*
X4227100Y-2834300D01*
X4225700Y-2836000D01*
X4225200Y-2837000D01*
X4225400Y-2837700D01*
X4226300Y-2839200D01*
X4228300Y-2842200D01*
X4231200Y-2846500D01*
X4234600Y-2851500D01*
X4237400Y-2855600D01*
X4240500Y-2860300D01*
X4242500Y-2863700D01*
X4243200Y-2865300D01*
X4243000Y-2866000D01*
X4242000Y-2868800D01*
X4240300Y-2872900D01*
X4238200Y-2877900D01*
X4233400Y-2889000D01*
X4226100Y-2890400D01*
X4221700Y-2891200D01*
X4215500Y-2892400D01*
X4209600Y-2893500D01*
X4200400Y-2895300D01*
X4200000Y-2929200D01*
X4201500Y-2929800D01*
X4202800Y-2930100D01*
X4206200Y-2930900D01*
X4211100Y-2931900D01*
X4216900Y-2932900D01*
X4221800Y-2933900D01*
X4226700Y-2934800D01*
X4230300Y-2935500D01*
X4231800Y-2935800D01*
X4232200Y-2936300D01*
X4233500Y-2938700D01*
X4235200Y-2942500D01*
X4237200Y-2947100D01*
X4239200Y-2951900D01*
X4240900Y-2956200D01*
X4242100Y-2959600D01*
X4242600Y-2961300D01*
X4241900Y-2962600D01*
X4240000Y-2965500D01*
X4237300Y-2969600D01*
X4233900Y-2974500D01*
X4230600Y-2979400D01*
X4227800Y-2983600D01*
X4225800Y-2986700D01*
X4225000Y-2988000D01*
X4225400Y-2989000D01*
X4227300Y-2991300D01*
X4231000Y-2995200D01*
X4236500Y-3000600D01*
X4237400Y-3001500D01*
X4241800Y-3005700D01*
X4245500Y-3009100D01*
X4248100Y-3011400D01*
X4249200Y-3012300D01*
X4249200Y-3012300D01*
G37*
X4249200Y-3012300D02*
X4250600Y-3011600D01*
X4253500Y-3009700D01*
X4257700Y-3007000D01*
X4262600Y-3003700D01*
X4267500Y-3000300D01*
X4271600Y-2997600D01*
X4274500Y-2995800D01*
X4275700Y-2995100D01*
X4276300Y-2995400D01*
X4278700Y-2996500D01*
X4282100Y-2998300D01*
X4284000Y-2999300D01*
X4287200Y-3000700D01*
X4288700Y-3000900D01*
X4289000Y-3000500D01*
X4290100Y-2998100D01*
X4291900Y-2994000D01*
X4294300Y-2988600D01*
X4297000Y-2982200D01*
X4299900Y-2975400D01*
X4302800Y-2968400D01*
X4305600Y-2961800D01*
X4308000Y-2955800D01*
X4310000Y-2950900D01*
X4311300Y-2947500D01*
X4311700Y-2946100D01*
X4311600Y-2945800D01*
X4310000Y-2944200D01*
X4307300Y-2942200D01*
X4301400Y-2937400D01*
X4295500Y-2930100D01*
X4292000Y-2921800D01*
X4290800Y-2912600D01*
X4291800Y-2904100D01*
X4295200Y-2895900D01*
X4300900Y-2888600D01*
X4307800Y-2883100D01*
X4315900Y-2879600D01*
X4325000Y-2878500D01*
X4333700Y-2879500D01*
X4342100Y-2882800D01*
X4349400Y-2888400D01*
X4352500Y-2892000D01*
X4356800Y-2899500D01*
X4359300Y-2907400D01*
X4359500Y-2909500D01*
X4359200Y-2918200D01*
X4356600Y-2926600D01*
X4351900Y-2934200D01*
X4345500Y-2940300D01*
X4344700Y-2940900D01*
X4341700Y-2943100D01*
X4339700Y-2944700D01*
X4338200Y-2946000D01*
X4349300Y-2972900D01*
X4351100Y-2977200D01*
X4354200Y-2984500D01*
X4356900Y-2990800D01*
X4359000Y-2995900D01*
X4360500Y-2999300D01*
X4361200Y-3000600D01*
X4361300Y-3000700D01*
X4362200Y-3000900D01*
X4364300Y-3000100D01*
X4368000Y-2998300D01*
X4370500Y-2997000D01*
X4373400Y-2995600D01*
X4374700Y-2995100D01*
X4375800Y-2995700D01*
X4378500Y-2997500D01*
X4382500Y-3000200D01*
X4387300Y-3003400D01*
X4391900Y-3006600D01*
X4396100Y-3009300D01*
X4399200Y-3011300D01*
X4400700Y-3012100D01*
X4400900Y-3012100D01*
X4402300Y-3011400D01*
X4404700Y-3009300D01*
X4408300Y-3005900D01*
X4413500Y-3000800D01*
X4414300Y-3000000D01*
X4418600Y-2995600D01*
X4422000Y-2992000D01*
X4424400Y-2989400D01*
X4425200Y-2988200D01*
X4425200Y-2988200D01*
X4424400Y-2986800D01*
X4422500Y-2983700D01*
X4419700Y-2979400D01*
X4416300Y-2974400D01*
X4407400Y-2961500D01*
X4412300Y-2949300D01*
X4413800Y-2945500D01*
X4415700Y-2941000D01*
X4417100Y-2937800D01*
X4417800Y-2936300D01*
X4419200Y-2935900D01*
X4422500Y-2935100D01*
X4427300Y-2934100D01*
X4433100Y-2933000D01*
X4438600Y-2932000D01*
X4443600Y-2931000D01*
X4447200Y-2930300D01*
X4448800Y-2930000D01*
X4449200Y-2929800D01*
X4449500Y-2929000D01*
X4449800Y-2927300D01*
X4449900Y-2924300D01*
X4449900Y-2919500D01*
X4449900Y-2912600D01*
X4449900Y-2911900D01*
X4449900Y-2905300D01*
X4449800Y-2900100D01*
X4449600Y-2896700D01*
X4449400Y-2895300D01*
X4449300Y-2895300D01*
X4447800Y-2894900D01*
X4444300Y-2894200D01*
X4439300Y-2893200D01*
X4433400Y-2892100D01*
X4433000Y-2892000D01*
X4427100Y-2890900D01*
X4422100Y-2889800D01*
X4418700Y-2889000D01*
X4417200Y-2888600D01*
X4416900Y-2888200D01*
X4415700Y-2885900D01*
X4414000Y-2882200D01*
X4412000Y-2877700D01*
X4410100Y-2873100D01*
X4408400Y-2868900D01*
X4407300Y-2865800D01*
X4407000Y-2864400D01*
X4407000Y-2864300D01*
X4407900Y-2862900D01*
X4409900Y-2859900D01*
X4412800Y-2855600D01*
X4416200Y-2850600D01*
X4416500Y-2850200D01*
X4419900Y-2845200D01*
X4422700Y-2841000D01*
X4424500Y-2838000D01*
X4425200Y-2836600D01*
X4425200Y-2836500D01*
X4424100Y-2835000D01*
X4421500Y-2832200D01*
X4417900Y-2828400D01*
X4413500Y-2824000D01*
X4412100Y-2822600D01*
X4407200Y-2817900D01*
X4403900Y-2814700D01*
X4401800Y-2813100D01*
X4400800Y-2812700D01*
X4400700Y-2812800D01*
X4399200Y-2813700D01*
X4396100Y-2815700D01*
X4391800Y-2818600D01*
X4386700Y-2822100D01*
X4386300Y-2822300D01*
X4381400Y-2825700D01*
X4377200Y-2828500D01*
X4374200Y-2830500D01*
X4372900Y-2831300D01*
X4372700Y-2831300D01*
X4370700Y-2830700D01*
X4367100Y-2829400D01*
X4362800Y-2827700D01*
X4358100Y-2825900D01*
X4353900Y-2824100D01*
X4350800Y-2822600D01*
X4349300Y-2821800D01*
X4349300Y-2821700D01*
X4348700Y-2819900D01*
X4347900Y-2816200D01*
X4346800Y-2811100D01*
X4345600Y-2804900D01*
X4345500Y-2804000D01*
X4344300Y-2798000D01*
X4343400Y-2793100D01*
X4342700Y-2789700D01*
X4342300Y-2788300D01*
X4341500Y-2788100D01*
X4338600Y-2787900D01*
X4334100Y-2787800D01*
X4328800Y-2787700D01*
X4323100Y-2787700D01*
X4317600Y-2787900D01*
X4312900Y-2788000D01*
X4309500Y-2788300D01*
X4308100Y-2788500D01*
X4308100Y-2788600D01*
X4307500Y-2790500D01*
X4306700Y-2794200D01*
X4305700Y-2799400D01*
X4304500Y-2805500D01*
X4304300Y-2806600D01*
X4303200Y-2812500D01*
X4302200Y-2817400D01*
X4301400Y-2820800D01*
X4301100Y-2822100D01*
X4300500Y-2822400D01*
X4298100Y-2823400D01*
X4294100Y-2825100D01*
X4289200Y-2827100D01*
X4277700Y-2831700D01*
X4263700Y-2822100D01*
X4262400Y-2821200D01*
X4257400Y-2817800D01*
X4253200Y-2815000D01*
X4250300Y-2813200D01*
X4249100Y-2812500D01*
X4249000Y-2812500D01*
X4247600Y-2813800D01*
X4244900Y-2816400D01*
X4241100Y-2820100D01*
X4236600Y-2824500D01*
X4233400Y-2827700D01*
X4229500Y-2831700D01*
X4227100Y-2834300D01*
X4225700Y-2836000D01*
X4225200Y-2837000D01*
X4225400Y-2837700D01*
X4226300Y-2839200D01*
X4228300Y-2842200D01*
X4231200Y-2846500D01*
X4234600Y-2851500D01*
X4237400Y-2855600D01*
X4240500Y-2860300D01*
X4242500Y-2863700D01*
X4243200Y-2865300D01*
X4243000Y-2866000D01*
X4242000Y-2868800D01*
X4240300Y-2872900D01*
X4238200Y-2877900D01*
X4233400Y-2889000D01*
X4226100Y-2890400D01*
X4221700Y-2891200D01*
X4215500Y-2892400D01*
X4209600Y-2893500D01*
X4200400Y-2895300D01*
X4200000Y-2929200D01*
X4201500Y-2929800D01*
X4202800Y-2930100D01*
X4206200Y-2930900D01*
X4211100Y-2931900D01*
X4216900Y-2932900D01*
X4221800Y-2933900D01*
X4226700Y-2934800D01*
X4230300Y-2935500D01*
X4231800Y-2935800D01*
X4232200Y-2936300D01*
X4233500Y-2938700D01*
X4235200Y-2942500D01*
X4237200Y-2947100D01*
X4239200Y-2951900D01*
X4240900Y-2956200D01*
X4242100Y-2959600D01*
X4242600Y-2961300D01*
X4241900Y-2962600D01*
X4240000Y-2965500D01*
X4237300Y-2969600D01*
X4233900Y-2974500D01*
X4230600Y-2979400D01*
X4227800Y-2983600D01*
X4225800Y-2986700D01*
X4225000Y-2988000D01*
X4225400Y-2989000D01*
X4227300Y-2991300D01*
X4231000Y-2995200D01*
X4236500Y-3000600D01*
X4237400Y-3001500D01*
X4241800Y-3005700D01*
X4245500Y-3009100D01*
X4248100Y-3011400D01*
X4249200Y-3012300D01*
D15*
X4494524Y-2443095D02*
X4494524Y-2403095D01*
X4517381Y-2443095D01*
X4517381Y-2403095D01*
X4534524Y-2406905D02*
X4536429Y-2405000D01*
X4540238Y-2403095D01*
X4549762Y-2403095D01*
X4553571Y-2405000D01*
X4555476Y-2406905D01*
X4557381Y-2410714D01*
X4557381Y-2414524D01*
X4555476Y-2420238D01*
X4532619Y-2443095D01*
X4557381Y-2443095D01*
M02*
