%FSLAX36Y36*%
G04 Gerber Fmt 3.6, Leading zero omitted, Abs format (unit inch)*
G04 Created by KiCad (PCBNEW (2014-jul-16 BZR unknown)-product) date Tue 27 Jan 2015 12:13:57 PM PST*
%MOIN*%
G01*
G04 APERTURE LIST*
%ADD10C,0.003937*%
%ADD11R,0.068000X0.068000*%
%ADD12C,0.068000*%
%ADD13O,0.068000X0.068000*%
%ADD14C,0.010000*%
%ADD15C,0.050000*%
G04 APERTURE END LIST*
D10*
D11*
X4527559Y-2335039D03*
D12*
X4527559Y-2235039D03*
X4527559Y-2135039D03*
X4527559Y-2035039D03*
D11*
X4280709Y-3453937D03*
D13*
X4280709Y-3553937D03*
X4380709Y-3453937D03*
X4380709Y-3553937D03*
D14*
X4280709Y-3553937D02*
X4212598Y-3485827D01*
X4379134Y-2235039D02*
X4527559Y-2235039D01*
X4212598Y-2401575D02*
X4379134Y-2235039D01*
X4212598Y-3485827D02*
X4212598Y-2401575D01*
X4380709Y-3453937D02*
X4380709Y-2587795D01*
X4380709Y-2587795D02*
X4606299Y-2362205D01*
X4606299Y-2213780D02*
X4527559Y-2135039D01*
X4606299Y-2362205D02*
X4606299Y-2213780D01*
D15*
X4280709Y-3453937D02*
X4280709Y-2451575D01*
X4397244Y-2335039D02*
X4527559Y-2335039D01*
X4280709Y-2451575D02*
X4397244Y-2335039D01*
X4380709Y-3553937D02*
X4380709Y-3611417D01*
X4342913Y-2035039D02*
X4527559Y-2035039D01*
X4133858Y-2244094D02*
X4342913Y-2035039D01*
X4133858Y-3622047D02*
X4133858Y-2244094D01*
X4173228Y-3661417D02*
X4133858Y-3622047D01*
X4330709Y-3661417D02*
X4173228Y-3661417D01*
X4380709Y-3611417D02*
X4330709Y-3661417D01*
D14*
G36*
X4697441Y-3910039D02*
X4636299Y-3910039D01*
X4636299Y-2362205D01*
X4636299Y-2213780D01*
X4634016Y-2202299D01*
X4627512Y-2192566D01*
X4585147Y-2150201D01*
X4586549Y-2146827D01*
X4586569Y-2123355D01*
X4577606Y-2101662D01*
X4568157Y-2092197D01*
X4570405Y-2079300D01*
X4527559Y-2036454D01*
X4484713Y-2079300D01*
X4486962Y-2092200D01*
X4477570Y-2101575D01*
X4468569Y-2123252D01*
X4468549Y-2146724D01*
X4477512Y-2168417D01*
X4494095Y-2185028D01*
X4494131Y-2185043D01*
X4477570Y-2201575D01*
X4476132Y-2205039D01*
X4379134Y-2205039D01*
X4367653Y-2207323D01*
X4357921Y-2213826D01*
X4191385Y-2380362D01*
X4184882Y-2390094D01*
X4182598Y-2401575D01*
X4182598Y-3485827D01*
X4184882Y-3497307D01*
X4191385Y-3507040D01*
X4223494Y-3539149D01*
X4220553Y-3553937D01*
X4225044Y-3576515D01*
X4237834Y-3595656D01*
X4256974Y-3608446D01*
X4279553Y-3612937D01*
X4281865Y-3612937D01*
X4304443Y-3608446D01*
X4323584Y-3595656D01*
X4324671Y-3594030D01*
X4343807Y-3612241D01*
X4368928Y-3621924D01*
X4379709Y-3614180D01*
X4379709Y-3554937D01*
X4378921Y-3554937D01*
X4378921Y-3552937D01*
X4379709Y-3552937D01*
X4379709Y-3552150D01*
X4381709Y-3552150D01*
X4381709Y-3552937D01*
X4440950Y-3552937D01*
X4448696Y-3542156D01*
X4448029Y-3538803D01*
X4437113Y-3514193D01*
X4420088Y-3497992D01*
X4423584Y-3495656D01*
X4436373Y-3476515D01*
X4440865Y-3453937D01*
X4436373Y-3431359D01*
X4423584Y-3412218D01*
X4410709Y-3403615D01*
X4410709Y-2600222D01*
X4627512Y-2383418D01*
X4627512Y-2383418D01*
X4631411Y-2377584D01*
X4634016Y-2373685D01*
X4634016Y-2373685D01*
X4636299Y-2362205D01*
X4636299Y-3910039D01*
X4448696Y-3910039D01*
X4448696Y-3565718D01*
X4440950Y-3554937D01*
X4381709Y-3554937D01*
X4381709Y-3614180D01*
X4392489Y-3621924D01*
X4417610Y-3612241D01*
X4437113Y-3593681D01*
X4448029Y-3569071D01*
X4448696Y-3565718D01*
X4448696Y-3910039D01*
X3963976Y-3910039D01*
X3963976Y-1995472D01*
X4469630Y-1995472D01*
X4458925Y-2019590D01*
X4458237Y-2047031D01*
X4468103Y-2072647D01*
X4470061Y-2075578D01*
X4483299Y-2077886D01*
X4526145Y-2035039D01*
X4525588Y-2034483D01*
X4527002Y-2033068D01*
X4527559Y-2033625D01*
X4528116Y-2033068D01*
X4529530Y-2034483D01*
X4528973Y-2035039D01*
X4571819Y-2077886D01*
X4585057Y-2075578D01*
X4596194Y-2050489D01*
X4596881Y-2023047D01*
X4587015Y-1997432D01*
X4585706Y-1995472D01*
X4697441Y-1995472D01*
X4697441Y-3910039D01*
X4697441Y-3910039D01*
G37*
X4697441Y-3910039D02*
X4636299Y-3910039D01*
X4636299Y-2362205D01*
X4636299Y-2213780D01*
X4634016Y-2202299D01*
X4627512Y-2192566D01*
X4585147Y-2150201D01*
X4586549Y-2146827D01*
X4586569Y-2123355D01*
X4577606Y-2101662D01*
X4568157Y-2092197D01*
X4570405Y-2079300D01*
X4527559Y-2036454D01*
X4484713Y-2079300D01*
X4486962Y-2092200D01*
X4477570Y-2101575D01*
X4468569Y-2123252D01*
X4468549Y-2146724D01*
X4477512Y-2168417D01*
X4494095Y-2185028D01*
X4494131Y-2185043D01*
X4477570Y-2201575D01*
X4476132Y-2205039D01*
X4379134Y-2205039D01*
X4367653Y-2207323D01*
X4357921Y-2213826D01*
X4191385Y-2380362D01*
X4184882Y-2390094D01*
X4182598Y-2401575D01*
X4182598Y-3485827D01*
X4184882Y-3497307D01*
X4191385Y-3507040D01*
X4223494Y-3539149D01*
X4220553Y-3553937D01*
X4225044Y-3576515D01*
X4237834Y-3595656D01*
X4256974Y-3608446D01*
X4279553Y-3612937D01*
X4281865Y-3612937D01*
X4304443Y-3608446D01*
X4323584Y-3595656D01*
X4324671Y-3594030D01*
X4343807Y-3612241D01*
X4368928Y-3621924D01*
X4379709Y-3614180D01*
X4379709Y-3554937D01*
X4378921Y-3554937D01*
X4378921Y-3552937D01*
X4379709Y-3552937D01*
X4379709Y-3552150D01*
X4381709Y-3552150D01*
X4381709Y-3552937D01*
X4440950Y-3552937D01*
X4448696Y-3542156D01*
X4448029Y-3538803D01*
X4437113Y-3514193D01*
X4420088Y-3497992D01*
X4423584Y-3495656D01*
X4436373Y-3476515D01*
X4440865Y-3453937D01*
X4436373Y-3431359D01*
X4423584Y-3412218D01*
X4410709Y-3403615D01*
X4410709Y-2600222D01*
X4627512Y-2383418D01*
X4627512Y-2383418D01*
X4631411Y-2377584D01*
X4634016Y-2373685D01*
X4634016Y-2373685D01*
X4636299Y-2362205D01*
X4636299Y-3910039D01*
X4448696Y-3910039D01*
X4448696Y-3565718D01*
X4440950Y-3554937D01*
X4381709Y-3554937D01*
X4381709Y-3614180D01*
X4392489Y-3621924D01*
X4417610Y-3612241D01*
X4437113Y-3593681D01*
X4448029Y-3569071D01*
X4448696Y-3565718D01*
X4448696Y-3910039D01*
X3963976Y-3910039D01*
X3963976Y-1995472D01*
X4469630Y-1995472D01*
X4458925Y-2019590D01*
X4458237Y-2047031D01*
X4468103Y-2072647D01*
X4470061Y-2075578D01*
X4483299Y-2077886D01*
X4526145Y-2035039D01*
X4525588Y-2034483D01*
X4527002Y-2033068D01*
X4527559Y-2033625D01*
X4528116Y-2033068D01*
X4529530Y-2034483D01*
X4528973Y-2035039D01*
X4571819Y-2077886D01*
X4585057Y-2075578D01*
X4596194Y-2050489D01*
X4596881Y-2023047D01*
X4587015Y-1997432D01*
X4585706Y-1995472D01*
X4697441Y-1995472D01*
X4697441Y-3910039D01*
M02*
