%FSLAX36Y36*%
G04 Gerber Fmt 3.6, Leading zero omitted, Abs format (unit inch)*
G04 Created by KiCad (PCBNEW (2014-jul-16 BZR unknown)-product) date Tue 27 Jan 2015 12:13:57 PM PST*
%MOIN*%
G01*
G04 APERTURE LIST*
%ADD10C,0.003937*%
%ADD11R,0.068000X0.068000*%
%ADD12C,0.068000*%
%ADD13O,0.068000X0.068000*%
%ADD14C,0.010000*%
G04 APERTURE END LIST*
D10*
D11*
X4527559Y-2335039D03*
D12*
X4527559Y-2235039D03*
X4527559Y-2135039D03*
X4527559Y-2035039D03*
D11*
X4280709Y-3453937D03*
D13*
X4280709Y-3553937D03*
X4380709Y-3453937D03*
X4380709Y-3553937D03*
D14*
G36*
X4697441Y-3910039D02*
X4586569Y-3910039D01*
X4586569Y-2223355D01*
X4577606Y-2201662D01*
X4561024Y-2185051D01*
X4560987Y-2185036D01*
X4577548Y-2168504D01*
X4586549Y-2146827D01*
X4586569Y-2123355D01*
X4577606Y-2101662D01*
X4568157Y-2092197D01*
X4570405Y-2079300D01*
X4527559Y-2036454D01*
X4484713Y-2079300D01*
X4486962Y-2092200D01*
X4477570Y-2101575D01*
X4468569Y-2123252D01*
X4468549Y-2146724D01*
X4477512Y-2168417D01*
X4494095Y-2185028D01*
X4494131Y-2185043D01*
X4477570Y-2201575D01*
X4468569Y-2223252D01*
X4468549Y-2246724D01*
X4477512Y-2268417D01*
X4486135Y-2277055D01*
X4479398Y-2279845D01*
X4472365Y-2286878D01*
X4468559Y-2296067D01*
X4468559Y-2306012D01*
X4468559Y-2374012D01*
X4472365Y-2383201D01*
X4479398Y-2390233D01*
X4488586Y-2394039D01*
X4498532Y-2394039D01*
X4566532Y-2394039D01*
X4575720Y-2390233D01*
X4582753Y-2383201D01*
X4586559Y-2374012D01*
X4586559Y-2364067D01*
X4586559Y-2296067D01*
X4582753Y-2286878D01*
X4575720Y-2279845D01*
X4568982Y-2277054D01*
X4577548Y-2268504D01*
X4586549Y-2246827D01*
X4586569Y-2223355D01*
X4586569Y-3910039D01*
X4448696Y-3910039D01*
X4448696Y-3565718D01*
X4448696Y-3542156D01*
X4448029Y-3538803D01*
X4437113Y-3514193D01*
X4420088Y-3497992D01*
X4423584Y-3495656D01*
X4436373Y-3476515D01*
X4440865Y-3453937D01*
X4436373Y-3431359D01*
X4423584Y-3412218D01*
X4404443Y-3399428D01*
X4381865Y-3394937D01*
X4379553Y-3394937D01*
X4356974Y-3399428D01*
X4338411Y-3411832D01*
X4335903Y-3405776D01*
X4328870Y-3398743D01*
X4319681Y-3394937D01*
X4309736Y-3394937D01*
X4241736Y-3394937D01*
X4232547Y-3398743D01*
X4225515Y-3405776D01*
X4221709Y-3414964D01*
X4221709Y-3424910D01*
X4221709Y-3492910D01*
X4225515Y-3502098D01*
X4232547Y-3509131D01*
X4238662Y-3511664D01*
X4237834Y-3512218D01*
X4225044Y-3531359D01*
X4220553Y-3553937D01*
X4225044Y-3576515D01*
X4237834Y-3595656D01*
X4256974Y-3608446D01*
X4279553Y-3612937D01*
X4281865Y-3612937D01*
X4304443Y-3608446D01*
X4323584Y-3595656D01*
X4324671Y-3594030D01*
X4343807Y-3612241D01*
X4368928Y-3621924D01*
X4379709Y-3614180D01*
X4379709Y-3554937D01*
X4378921Y-3554937D01*
X4378921Y-3552937D01*
X4379709Y-3552937D01*
X4379709Y-3552150D01*
X4381709Y-3552150D01*
X4381709Y-3552937D01*
X4440950Y-3552937D01*
X4448696Y-3542156D01*
X4448696Y-3565718D01*
X4440950Y-3554937D01*
X4381709Y-3554937D01*
X4381709Y-3614180D01*
X4392489Y-3621924D01*
X4417610Y-3612241D01*
X4437113Y-3593681D01*
X4448029Y-3569071D01*
X4448696Y-3565718D01*
X4448696Y-3910039D01*
X3963976Y-3910039D01*
X3963976Y-1995472D01*
X4469630Y-1995472D01*
X4458925Y-2019590D01*
X4458237Y-2047031D01*
X4468103Y-2072647D01*
X4470061Y-2075578D01*
X4483299Y-2077886D01*
X4526145Y-2035039D01*
X4525588Y-2034483D01*
X4527002Y-2033068D01*
X4527559Y-2033625D01*
X4528116Y-2033068D01*
X4529530Y-2034483D01*
X4528973Y-2035039D01*
X4571819Y-2077886D01*
X4585057Y-2075578D01*
X4596194Y-2050489D01*
X4596881Y-2023047D01*
X4587015Y-1997432D01*
X4585706Y-1995472D01*
X4697441Y-1995472D01*
X4697441Y-3910039D01*
X4697441Y-3910039D01*
G37*
X4697441Y-3910039D02*
X4586569Y-3910039D01*
X4586569Y-2223355D01*
X4577606Y-2201662D01*
X4561024Y-2185051D01*
X4560987Y-2185036D01*
X4577548Y-2168504D01*
X4586549Y-2146827D01*
X4586569Y-2123355D01*
X4577606Y-2101662D01*
X4568157Y-2092197D01*
X4570405Y-2079300D01*
X4527559Y-2036454D01*
X4484713Y-2079300D01*
X4486962Y-2092200D01*
X4477570Y-2101575D01*
X4468569Y-2123252D01*
X4468549Y-2146724D01*
X4477512Y-2168417D01*
X4494095Y-2185028D01*
X4494131Y-2185043D01*
X4477570Y-2201575D01*
X4468569Y-2223252D01*
X4468549Y-2246724D01*
X4477512Y-2268417D01*
X4486135Y-2277055D01*
X4479398Y-2279845D01*
X4472365Y-2286878D01*
X4468559Y-2296067D01*
X4468559Y-2306012D01*
X4468559Y-2374012D01*
X4472365Y-2383201D01*
X4479398Y-2390233D01*
X4488586Y-2394039D01*
X4498532Y-2394039D01*
X4566532Y-2394039D01*
X4575720Y-2390233D01*
X4582753Y-2383201D01*
X4586559Y-2374012D01*
X4586559Y-2364067D01*
X4586559Y-2296067D01*
X4582753Y-2286878D01*
X4575720Y-2279845D01*
X4568982Y-2277054D01*
X4577548Y-2268504D01*
X4586549Y-2246827D01*
X4586569Y-2223355D01*
X4586569Y-3910039D01*
X4448696Y-3910039D01*
X4448696Y-3565718D01*
X4448696Y-3542156D01*
X4448029Y-3538803D01*
X4437113Y-3514193D01*
X4420088Y-3497992D01*
X4423584Y-3495656D01*
X4436373Y-3476515D01*
X4440865Y-3453937D01*
X4436373Y-3431359D01*
X4423584Y-3412218D01*
X4404443Y-3399428D01*
X4381865Y-3394937D01*
X4379553Y-3394937D01*
X4356974Y-3399428D01*
X4338411Y-3411832D01*
X4335903Y-3405776D01*
X4328870Y-3398743D01*
X4319681Y-3394937D01*
X4309736Y-3394937D01*
X4241736Y-3394937D01*
X4232547Y-3398743D01*
X4225515Y-3405776D01*
X4221709Y-3414964D01*
X4221709Y-3424910D01*
X4221709Y-3492910D01*
X4225515Y-3502098D01*
X4232547Y-3509131D01*
X4238662Y-3511664D01*
X4237834Y-3512218D01*
X4225044Y-3531359D01*
X4220553Y-3553937D01*
X4225044Y-3576515D01*
X4237834Y-3595656D01*
X4256974Y-3608446D01*
X4279553Y-3612937D01*
X4281865Y-3612937D01*
X4304443Y-3608446D01*
X4323584Y-3595656D01*
X4324671Y-3594030D01*
X4343807Y-3612241D01*
X4368928Y-3621924D01*
X4379709Y-3614180D01*
X4379709Y-3554937D01*
X4378921Y-3554937D01*
X4378921Y-3552937D01*
X4379709Y-3552937D01*
X4379709Y-3552150D01*
X4381709Y-3552150D01*
X4381709Y-3552937D01*
X4440950Y-3552937D01*
X4448696Y-3542156D01*
X4448696Y-3565718D01*
X4440950Y-3554937D01*
X4381709Y-3554937D01*
X4381709Y-3614180D01*
X4392489Y-3621924D01*
X4417610Y-3612241D01*
X4437113Y-3593681D01*
X4448029Y-3569071D01*
X4448696Y-3565718D01*
X4448696Y-3910039D01*
X3963976Y-3910039D01*
X3963976Y-1995472D01*
X4469630Y-1995472D01*
X4458925Y-2019590D01*
X4458237Y-2047031D01*
X4468103Y-2072647D01*
X4470061Y-2075578D01*
X4483299Y-2077886D01*
X4526145Y-2035039D01*
X4525588Y-2034483D01*
X4527002Y-2033068D01*
X4527559Y-2033625D01*
X4528116Y-2033068D01*
X4529530Y-2034483D01*
X4528973Y-2035039D01*
X4571819Y-2077886D01*
X4585057Y-2075578D01*
X4596194Y-2050489D01*
X4596881Y-2023047D01*
X4587015Y-1997432D01*
X4585706Y-1995472D01*
X4697441Y-1995472D01*
X4697441Y-3910039D01*
M02*
