<?xml version="1.0" standalone="no"?>
 <!DOCTYPE svg PUBLIC "-//W3C//DTD SVG 1.1//EN" 
 "http://www.w3.org/Graphics/SVG/1.1/DTD/svg11.dtd"> 
<svg xmlns="http://www.w3.org/2000/svg" version="1.1" 
    width="27.94cm" height="21.59cm" viewBox="0 0 110000 85000 ">
<title>SVG Picture created as sonar_riser.svg date 2015/01/25 18:15:13 </title>
  <desc>Picture generated by Eeschema-SVG </desc>
<g style="fill:#000000; fill-opacity:1;stroke:#000000; stroke-opacity:1;
stroke-linecap:round; stroke-linejoin:round; "
 transform="translate(0 0) scale(1 1)">
</g>
<g style="fill:#000000; fill-opacity:0.0; 
stroke:#000000; stroke-width:100; stroke-opacity:1; 
stroke-linecap:round; stroke-linejoin:round;">
</g>
<g style="fill:#000000; fill-opacity:0.0; 
stroke:#000000; stroke-width:60; stroke-opacity:1; 
stroke-linecap:round; stroke-linejoin:round;">
<rect x="62760" y="67680" width="42520" height="12600" rx="0" />
</g>
<g style="fill:#000000; fill-opacity:0.0; 
stroke:#000000; stroke-width:100; stroke-opacity:1; 
stroke-linecap:round; stroke-linejoin:round;">
</g>
<g style="fill:#000000; fill-opacity:0.0; 
stroke:#000000; stroke-width:60; stroke-opacity:1; 
stroke-linecap:round; stroke-linejoin:round;">
<rect x="3940" y="3940" width="102120" height="77120" rx="0" />
</g>
<g style="fill:#000000; fill-opacity:0.0; 
stroke:#000000; stroke-width:100; stroke-opacity:1; 
stroke-linecap:round; stroke-linejoin:round;">
</g>
<g style="fill:#000000; fill-opacity:0.0; 
stroke:#000000; stroke-width:60; stroke-opacity:1; 
stroke-linecap:round; stroke-linejoin:round;">
<rect x="4720" y="4720" width="100560" height="75560" rx="0" />
</g>
<g style="fill:#000000; fill-opacity:0.0; 
stroke:#000000; stroke-width:100; stroke-opacity:1; 
stroke-linecap:round; stroke-linejoin:round;">
</g>
<g style="fill:#000000; fill-opacity:0.0; 
stroke:#000000; stroke-width:60; stroke-opacity:1; 
stroke-linecap:round; stroke-linejoin:round;">
<path d="M23620 4720
L23620 3940
" />
</g>
<g style="fill:#000000; fill-opacity:0.0; 
stroke:#000000; stroke-width:100; stroke-opacity:1; 
stroke-linecap:round; stroke-linejoin:round;">
</g>
<g style="fill:#000000; fill-opacity:0.0; 
stroke:#000000; stroke-width:60; stroke-opacity:1; 
stroke-linecap:round; stroke-linejoin:round;">
<path d="M43310 4720
L43310 3940
" />
</g>
<g style="fill:#000000; fill-opacity:0.0; 
stroke:#000000; stroke-width:100; stroke-opacity:1; 
stroke-linecap:round; stroke-linejoin:round;">
</g>
<g style="fill:#000000; fill-opacity:0.0; 
stroke:#000000; stroke-width:60; stroke-opacity:1; 
stroke-linecap:round; stroke-linejoin:round;">
<path d="M62990 4720
L62990 3940
" />
</g>
<g style="fill:#000000; fill-opacity:0.0; 
stroke:#000000; stroke-width:100; stroke-opacity:1; 
stroke-linecap:round; stroke-linejoin:round;">
</g>
<g style="fill:#000000; fill-opacity:0.0; 
stroke:#000000; stroke-width:60; stroke-opacity:1; 
stroke-linecap:round; stroke-linejoin:round;">
<path d="M82680 4720
L82680 3940
" />
</g>
<g style="fill:#000000; fill-opacity:0.0; 
stroke:#000000; stroke-width:100; stroke-opacity:1; 
stroke-linecap:round; stroke-linejoin:round;">
</g>
<g style="fill:#000000; fill-opacity:0.0; 
stroke:#000000; stroke-width:60; stroke-opacity:1; 
stroke-linecap:round; stroke-linejoin:round;">
<path d="M102360 4720
L102360 3940
" />
</g>
<g style="fill:#000000; fill-opacity:0.0; 
stroke:#000000; stroke-width:100; stroke-opacity:1; 
stroke-linecap:round; stroke-linejoin:round;">
</g>
<g style="fill:#000000; fill-opacity:0.0; 
stroke:#000000; stroke-width:60; stroke-opacity:1; 
stroke-linecap:round; stroke-linejoin:round;">
<path d="M14170 4560
L13880 4560
" />
<path d="M14020 4560
L14020 4050
L13970 4120
L13930 4170
L13880 4190
" />
</g>
<g style="fill:#000000; fill-opacity:0.0; 
stroke:#000000; stroke-width:100; stroke-opacity:1; 
stroke-linecap:round; stroke-linejoin:round;">
</g>
<g style="fill:#000000; fill-opacity:0.0; 
stroke:#000000; stroke-width:60; stroke-opacity:1; 
stroke-linecap:round; stroke-linejoin:round;">
<path d="M33560 4090
L33580 4070
L33630 4050
L33750 4050
L33800 4070
L33820 4090
L33850 4140
L33850 4190
L33820 4260
L33530 4560
L33850 4560
" />
</g>
<g style="fill:#000000; fill-opacity:0.0; 
stroke:#000000; stroke-width:100; stroke-opacity:1; 
stroke-linecap:round; stroke-linejoin:round;">
</g>
<g style="fill:#000000; fill-opacity:0.0; 
stroke:#000000; stroke-width:60; stroke-opacity:1; 
stroke-linecap:round; stroke-linejoin:round;">
<path d="M53220 4050
L53540 4050
L53370 4240
L53440 4240
L53490 4260
L53510 4290
L53540 4340
L53540 4460
L53510 4510
L53490 4530
L53440 4560
L53300 4560
L53250 4530
L53220 4510
" />
</g>
<g style="fill:#000000; fill-opacity:0.0; 
stroke:#000000; stroke-width:100; stroke-opacity:1; 
stroke-linecap:round; stroke-linejoin:round;">
</g>
<g style="fill:#000000; fill-opacity:0.0; 
stroke:#000000; stroke-width:60; stroke-opacity:1; 
stroke-linecap:round; stroke-linejoin:round;">
<path d="M73170 4220
L73170 4560
" />
<path d="M73050 4020
L72930 4390
L73240 4390
" />
</g>
<g style="fill:#000000; fill-opacity:0.0; 
stroke:#000000; stroke-width:100; stroke-opacity:1; 
stroke-linecap:round; stroke-linejoin:round;">
</g>
<g style="fill:#000000; fill-opacity:0.0; 
stroke:#000000; stroke-width:60; stroke-opacity:1; 
stroke-linecap:round; stroke-linejoin:round;">
<path d="M92880 4050
L92640 4050
L92620 4290
L92640 4260
L92690 4240
L92810 4240
L92860 4260
L92880 4290
L92910 4340
L92910 4460
L92880 4510
L92860 4530
L92810 4560
L92690 4560
L92640 4530
L92620 4510
" />
</g>
<g style="fill:#000000; fill-opacity:0.0; 
stroke:#000000; stroke-width:100; stroke-opacity:1; 
stroke-linecap:round; stroke-linejoin:round;">
</g>
<g style="fill:#000000; fill-opacity:0.0; 
stroke:#000000; stroke-width:60; stroke-opacity:1; 
stroke-linecap:round; stroke-linejoin:round;">
<path d="M23620 80280
L23620 81060
" />
</g>
<g style="fill:#000000; fill-opacity:0.0; 
stroke:#000000; stroke-width:100; stroke-opacity:1; 
stroke-linecap:round; stroke-linejoin:round;">
</g>
<g style="fill:#000000; fill-opacity:0.0; 
stroke:#000000; stroke-width:60; stroke-opacity:1; 
stroke-linecap:round; stroke-linejoin:round;">
<path d="M43310 80280
L43310 81060
" />
</g>
<g style="fill:#000000; fill-opacity:0.0; 
stroke:#000000; stroke-width:100; stroke-opacity:1; 
stroke-linecap:round; stroke-linejoin:round;">
</g>
<g style="fill:#000000; fill-opacity:0.0; 
stroke:#000000; stroke-width:60; stroke-opacity:1; 
stroke-linecap:round; stroke-linejoin:round;">
<path d="M62990 80280
L62990 81060
" />
</g>
<g style="fill:#000000; fill-opacity:0.0; 
stroke:#000000; stroke-width:100; stroke-opacity:1; 
stroke-linecap:round; stroke-linejoin:round;">
</g>
<g style="fill:#000000; fill-opacity:0.0; 
stroke:#000000; stroke-width:60; stroke-opacity:1; 
stroke-linecap:round; stroke-linejoin:round;">
<path d="M82680 80280
L82680 81060
" />
</g>
<g style="fill:#000000; fill-opacity:0.0; 
stroke:#000000; stroke-width:100; stroke-opacity:1; 
stroke-linecap:round; stroke-linejoin:round;">
</g>
<g style="fill:#000000; fill-opacity:0.0; 
stroke:#000000; stroke-width:60; stroke-opacity:1; 
stroke-linecap:round; stroke-linejoin:round;">
<path d="M102360 80280
L102360 81060
" />
</g>
<g style="fill:#000000; fill-opacity:0.0; 
stroke:#000000; stroke-width:100; stroke-opacity:1; 
stroke-linecap:round; stroke-linejoin:round;">
</g>
<g style="fill:#000000; fill-opacity:0.0; 
stroke:#000000; stroke-width:60; stroke-opacity:1; 
stroke-linecap:round; stroke-linejoin:round;">
<path d="M14170 80900
L13880 80900
" />
<path d="M14020 80900
L14020 80390
L13970 80460
L13930 80510
L13880 80530
" />
</g>
<g style="fill:#000000; fill-opacity:0.0; 
stroke:#000000; stroke-width:100; stroke-opacity:1; 
stroke-linecap:round; stroke-linejoin:round;">
</g>
<g style="fill:#000000; fill-opacity:0.0; 
stroke:#000000; stroke-width:60; stroke-opacity:1; 
stroke-linecap:round; stroke-linejoin:round;">
<path d="M33560 80430
L33580 80410
L33630 80390
L33750 80390
L33800 80410
L33820 80430
L33850 80480
L33850 80530
L33820 80600
L33530 80900
L33850 80900
" />
</g>
<g style="fill:#000000; fill-opacity:0.0; 
stroke:#000000; stroke-width:100; stroke-opacity:1; 
stroke-linecap:round; stroke-linejoin:round;">
</g>
<g style="fill:#000000; fill-opacity:0.0; 
stroke:#000000; stroke-width:60; stroke-opacity:1; 
stroke-linecap:round; stroke-linejoin:round;">
<path d="M53220 80390
L53540 80390
L53370 80580
L53440 80580
L53490 80600
L53510 80630
L53540 80680
L53540 80800
L53510 80850
L53490 80870
L53440 80900
L53300 80900
L53250 80870
L53220 80850
" />
</g>
<g style="fill:#000000; fill-opacity:0.0; 
stroke:#000000; stroke-width:100; stroke-opacity:1; 
stroke-linecap:round; stroke-linejoin:round;">
</g>
<g style="fill:#000000; fill-opacity:0.0; 
stroke:#000000; stroke-width:60; stroke-opacity:1; 
stroke-linecap:round; stroke-linejoin:round;">
<path d="M73170 80560
L73170 80900
" />
<path d="M73050 80360
L72930 80730
L73240 80730
" />
</g>
<g style="fill:#000000; fill-opacity:0.0; 
stroke:#000000; stroke-width:100; stroke-opacity:1; 
stroke-linecap:round; stroke-linejoin:round;">
</g>
<g style="fill:#000000; fill-opacity:0.0; 
stroke:#000000; stroke-width:60; stroke-opacity:1; 
stroke-linecap:round; stroke-linejoin:round;">
<path d="M92880 80390
L92640 80390
L92620 80630
L92640 80600
L92690 80580
L92810 80580
L92860 80600
L92880 80630
L92910 80680
L92910 80800
L92880 80850
L92860 80870
L92810 80900
L92690 80900
L92640 80870
L92620 80850
" />
</g>
<g style="fill:#000000; fill-opacity:0.0; 
stroke:#000000; stroke-width:100; stroke-opacity:1; 
stroke-linecap:round; stroke-linejoin:round;">
</g>
<g style="fill:#000000; fill-opacity:0.0; 
stroke:#000000; stroke-width:60; stroke-opacity:1; 
stroke-linecap:round; stroke-linejoin:round;">
<path d="M3940 23620
L4720 23620
" />
</g>
<g style="fill:#000000; fill-opacity:0.0; 
stroke:#000000; stroke-width:100; stroke-opacity:1; 
stroke-linecap:round; stroke-linejoin:round;">
</g>
<g style="fill:#000000; fill-opacity:0.0; 
stroke:#000000; stroke-width:60; stroke-opacity:1; 
stroke-linecap:round; stroke-linejoin:round;">
<path d="M3940 43310
L4720 43310
" />
</g>
<g style="fill:#000000; fill-opacity:0.0; 
stroke:#000000; stroke-width:100; stroke-opacity:1; 
stroke-linecap:round; stroke-linejoin:round;">
</g>
<g style="fill:#000000; fill-opacity:0.0; 
stroke:#000000; stroke-width:60; stroke-opacity:1; 
stroke-linecap:round; stroke-linejoin:round;">
<path d="M3940 62990
L4720 62990
" />
</g>
<g style="fill:#000000; fill-opacity:0.0; 
stroke:#000000; stroke-width:100; stroke-opacity:1; 
stroke-linecap:round; stroke-linejoin:round;">
</g>
<g style="fill:#000000; fill-opacity:0.0; 
stroke:#000000; stroke-width:60; stroke-opacity:1; 
stroke-linecap:round; stroke-linejoin:round;">
<path d="M4210 13860
L4450 13860
" />
<path d="M4160 14010
L4330 13500
L4500 14010
" />
</g>
<g style="fill:#000000; fill-opacity:0.0; 
stroke:#000000; stroke-width:100; stroke-opacity:1; 
stroke-linecap:round; stroke-linejoin:round;">
</g>
<g style="fill:#000000; fill-opacity:0.0; 
stroke:#000000; stroke-width:60; stroke-opacity:1; 
stroke-linecap:round; stroke-linejoin:round;">
<path d="M4370 33420
L4440 33440
L4470 33470
L4490 33520
L4490 33590
L4470 33640
L4440 33660
L4400 33690
L4200 33690
L4200 33180
L4370 33180
L4420 33200
L4440 33220
L4470 33270
L4470 33320
L4440 33370
L4420 33390
L4370 33420
L4200 33420
" />
</g>
<g style="fill:#000000; fill-opacity:0.0; 
stroke:#000000; stroke-width:100; stroke-opacity:1; 
stroke-linecap:round; stroke-linejoin:round;">
</g>
<g style="fill:#000000; fill-opacity:0.0; 
stroke:#000000; stroke-width:60; stroke-opacity:1; 
stroke-linecap:round; stroke-linejoin:round;">
<path d="M4490 53330
L4470 53350
L4400 53380
L4350 53380
L4270 53350
L4230 53300
L4200 53250
L4180 53160
L4180 53080
L4200 52990
L4230 52940
L4270 52890
L4350 52870
L4400 52870
L4470 52890
L4490 52910
" />
</g>
<g style="fill:#000000; fill-opacity:0.0; 
stroke:#000000; stroke-width:100; stroke-opacity:1; 
stroke-linecap:round; stroke-linejoin:round;">
</g>
<g style="fill:#000000; fill-opacity:0.0; 
stroke:#000000; stroke-width:60; stroke-opacity:1; 
stroke-linecap:round; stroke-linejoin:round;">
<path d="M4200 73060
L4200 72550
L4320 72550
L4400 72570
L4440 72620
L4470 72670
L4490 72760
L4490 72840
L4470 72930
L4440 72980
L4400 73030
L4320 73060
L4200 73060
" />
</g>
<g style="fill:#000000; fill-opacity:0.0; 
stroke:#000000; stroke-width:100; stroke-opacity:1; 
stroke-linecap:round; stroke-linejoin:round;">
</g>
<g style="fill:#000000; fill-opacity:0.0; 
stroke:#000000; stroke-width:60; stroke-opacity:1; 
stroke-linecap:round; stroke-linejoin:round;">
<path d="M106060 23620
L105280 23620
" />
</g>
<g style="fill:#000000; fill-opacity:0.0; 
stroke:#000000; stroke-width:100; stroke-opacity:1; 
stroke-linecap:round; stroke-linejoin:round;">
</g>
<g style="fill:#000000; fill-opacity:0.0; 
stroke:#000000; stroke-width:60; stroke-opacity:1; 
stroke-linecap:round; stroke-linejoin:round;">
<path d="M106060 43310
L105280 43310
" />
</g>
<g style="fill:#000000; fill-opacity:0.0; 
stroke:#000000; stroke-width:100; stroke-opacity:1; 
stroke-linecap:round; stroke-linejoin:round;">
</g>
<g style="fill:#000000; fill-opacity:0.0; 
stroke:#000000; stroke-width:60; stroke-opacity:1; 
stroke-linecap:round; stroke-linejoin:round;">
<path d="M106060 62990
L105280 62990
" />
</g>
<g style="fill:#000000; fill-opacity:0.0; 
stroke:#000000; stroke-width:100; stroke-opacity:1; 
stroke-linecap:round; stroke-linejoin:round;">
</g>
<g style="fill:#000000; fill-opacity:0.0; 
stroke:#000000; stroke-width:60; stroke-opacity:1; 
stroke-linecap:round; stroke-linejoin:round;">
<path d="M105550 13860
L105790 13860
" />
<path d="M105500 14010
L105670 13500
L105840 14010
" />
</g>
<g style="fill:#000000; fill-opacity:0.0; 
stroke:#000000; stroke-width:100; stroke-opacity:1; 
stroke-linecap:round; stroke-linejoin:round;">
</g>
<g style="fill:#000000; fill-opacity:0.0; 
stroke:#000000; stroke-width:60; stroke-opacity:1; 
stroke-linecap:round; stroke-linejoin:round;">
<path d="M105710 33420
L105780 33440
L105810 33470
L105830 33520
L105830 33590
L105810 33640
L105780 33660
L105740 33690
L105540 33690
L105540 33180
L105710 33180
L105760 33200
L105780 33220
L105810 33270
L105810 33320
L105780 33370
L105760 33390
L105710 33420
L105540 33420
" />
</g>
<g style="fill:#000000; fill-opacity:0.0; 
stroke:#000000; stroke-width:100; stroke-opacity:1; 
stroke-linecap:round; stroke-linejoin:round;">
</g>
<g style="fill:#000000; fill-opacity:0.0; 
stroke:#000000; stroke-width:60; stroke-opacity:1; 
stroke-linecap:round; stroke-linejoin:round;">
<path d="M105830 53330
L105810 53350
L105740 53380
L105690 53380
L105610 53350
L105570 53300
L105540 53250
L105520 53160
L105520 53080
L105540 52990
L105570 52940
L105610 52890
L105690 52870
L105740 52870
L105810 52890
L105830 52910
" />
</g>
<g style="fill:#000000; fill-opacity:0.0; 
stroke:#000000; stroke-width:100; stroke-opacity:1; 
stroke-linecap:round; stroke-linejoin:round;">
</g>
<g style="fill:#000000; fill-opacity:0.0; 
stroke:#000000; stroke-width:60; stroke-opacity:1; 
stroke-linecap:round; stroke-linejoin:round;">
<path d="M105540 73060
L105540 72550
L105660 72550
L105740 72570
L105780 72620
L105810 72670
L105830 72760
L105830 72840
L105810 72930
L105780 72980
L105740 73030
L105660 73060
L105540 73060
" />
</g>
<g style="fill:#000000; fill-opacity:0.0; 
stroke:#000000; stroke-width:100; stroke-opacity:1; 
stroke-linecap:round; stroke-linejoin:round;">
</g>
<g style="fill:#000000; fill-opacity:0.0; 
stroke:#000000; stroke-width:60; stroke-opacity:1; 
stroke-linecap:round; stroke-linejoin:round;">
<path d="M71950 78610
L71950 78020
L72090 78020
L72180 78050
L72230 78110
L72260 78160
L72290 78270
L72290 78360
L72260 78470
L72230 78530
L72180 78580
L72090 78610
L71950 78610
" />
<path d="M72790 78610
L72790 78300
L72770 78250
L72710 78220
L72600 78220
L72540 78250
" />
<path d="M72790 78580
L72740 78610
L72600 78610
L72540 78580
L72510 78530
L72510 78470
L72540 78420
L72600 78390
L72740 78390
L72790 78360
" />
<path d="M72990 78220
L73210 78220
" />
<path d="M73070 78020
L73070 78530
L73100 78580
L73150 78610
L73210 78610
" />
<path d="M73640 78580
L73580 78610
L73470 78610
L73410 78580
L73380 78530
L73380 78300
L73410 78250
L73470 78220
L73580 78220
L73640 78250
L73660 78300
L73660 78360
L73380 78420
" />
<path d="M73920 78560
L73950 78580
L73920 78610
L73890 78580
L73920 78560
L73920 78610
" />
<path d="M73920 78250
L73950 78270
L73920 78300
L73890 78270
L73920 78250
L73920 78300
" />
<path d="M74620 78580
L74710 78610
L74850 78610
L74900 78580
L74930 78560
L74960 78500
L74960 78440
L74930 78390
L74900 78360
L74850 78330
L74730 78300
L74680 78270
L74650 78250
L74620 78190
L74620 78130
L74650 78080
L74680 78050
L74730 78020
L74880 78020
L74960 78050
" />
<path d="M75460 78220
L75460 78610
" />
<path d="M75210 78220
L75210 78530
L75240 78580
L75290 78610
L75380 78610
L75440 78580
L75460 78560
" />
<path d="M75740 78220
L75740 78610
" />
<path d="M75740 78270
L75770 78250
L75820 78220
L75910 78220
L75970 78250
L75990 78300
L75990 78610
" />
<path d="M76690 78080
L76720 78050
L76780 78020
L76920 78020
L76970 78050
L77000 78080
L77030 78130
L77030 78190
L77000 78270
L76660 78610
L77030 78610
" />
<path d="M77560 78020
L77280 78020
L77250 78300
L77280 78270
L77340 78250
L77480 78250
L77530 78270
L77560 78300
L77590 78360
L77590 78500
L77560 78560
L77530 78580
L77480 78610
L77340 78610
L77280 78580
L77250 78560
" />
<path d="M78460 78020
L78460 78440
L78430 78530
L78370 78580
L78290 78610
L78230 78610
" />
<path d="M78990 78610
L78990 78300
L78970 78250
L78910 78220
L78800 78220
L78740 78250
" />
<path d="M78990 78580
L78940 78610
L78800 78610
L78740 78580
L78710 78530
L78710 78470
L78740 78420
L78800 78390
L78940 78390
L78990 78360
" />
<path d="M79270 78220
L79270 78610
" />
<path d="M79270 78270
L79300 78250
L79350 78220
L79440 78220
L79500 78250
L79520 78300
L79520 78610
" />
<path d="M80220 78080
L80250 78050
L80310 78020
L80450 78020
L80500 78050
L80530 78080
L80560 78130
L80560 78190
L80530 78270
L80190 78610
L80560 78610
" />
<path d="M80920 78020
L80980 78020
L81040 78050
L81060 78080
L81090 78130
L81120 78250
L81120 78390
L81090 78500
L81060 78560
L81040 78580
L80980 78610
L80920 78610
L80870 78580
L80840 78560
L80810 78500
L80780 78390
L80780 78250
L80810 78130
L80840 78080
L80870 78050
L80920 78020
" />
<path d="M81680 78610
L81340 78610
" />
<path d="M81510 78610
L81510 78020
L81450 78110
L81400 78160
L81340 78190
" />
<path d="M82210 78020
L81930 78020
L81900 78300
L81930 78270
L81990 78250
L82130 78250
L82180 78270
L82210 78300
L82240 78360
L82240 78500
L82210 78560
L82180 78580
L82130 78610
L81990 78610
L81930 78580
L81900 78560
" />
</g>
<g style="fill:#000000; fill-opacity:0.0; 
stroke:#000000; stroke-width:100; stroke-opacity:1; 
stroke-linecap:round; stroke-linejoin:round;">
</g>
<g style="fill:#000000; fill-opacity:0.0; 
stroke:#000000; stroke-width:60; stroke-opacity:1; 
stroke-linecap:round; stroke-linejoin:round;">
<path d="M62760 78900
L105280 78900
" />
</g>
<g style="fill:#000000; fill-opacity:0.0; 
stroke:#000000; stroke-width:100; stroke-opacity:1; 
stroke-linecap:round; stroke-linejoin:round;">
</g>
<g style="fill:#000000; fill-opacity:0.0; 
stroke:#000000; stroke-width:60; stroke-opacity:1; 
stroke-linecap:round; stroke-linejoin:round;">
<path d="M63290 79710
L63290 79120
" />
<path d="M63630 79710
L63370 79370
" />
<path d="M63630 79120
L63290 79460
" />
<path d="M63880 79710
L63880 79320
" />
<path d="M63880 79120
L63850 79150
L63880 79180
L63910 79150
L63880 79120
L63880 79180
" />
<path d="M64500 79660
L64470 79680
L64390 79710
L64330 79710
L64240 79680
L64190 79630
L64160 79570
L64130 79460
L64130 79370
L64160 79260
L64190 79210
L64240 79150
L64330 79120
L64390 79120
L64470 79150
L64500 79180
" />
<path d="M65000 79710
L65000 79400
L64980 79350
L64920 79320
L64810 79320
L64750 79350
" />
<path d="M65000 79680
L64950 79710
L64810 79710
L64750 79680
L64720 79630
L64720 79570
L64750 79520
L64810 79490
L64950 79490
L65000 79460
" />
<path d="M65530 79710
L65530 79120
" />
<path d="M65530 79680
L65480 79710
L65360 79710
L65310 79680
L65280 79660
L65250 79600
L65250 79430
L65280 79370
L65310 79350
L65360 79320
L65480 79320
L65530 79350
" />
<path d="M66260 79400
L66460 79400
" />
<path d="M66540 79710
L66260 79710
L66260 79120
L66540 79120
" />
<path d="M66790 79660
L66820 79680
L66790 79710
L66760 79680
L66790 79660
L66790 79710
" />
<path d="M67070 79710
L67070 79120
L67210 79120
L67300 79150
L67350 79210
L67380 79260
L67410 79370
L67410 79460
L67380 79570
L67350 79630
L67300 79680
L67210 79710
L67070 79710
" />
<path d="M67660 79660
L67690 79680
L67660 79710
L67630 79680
L67660 79660
L67660 79710
" />
<path d="M67910 79540
L68190 79540
" />
<path d="M67860 79710
L68050 79120
L68250 79710
" />
<path d="M68450 79660
L68480 79680
L68450 79710
L68420 79680
L68450 79660
L68450 79710
" />
<path d="M69630 79710
L69630 79120
" />
<path d="M69690 79490
L69860 79710
" />
<path d="M69860 79320
L69630 79540
" />
<path d="M70110 79710
L70110 79320
" />
<path d="M70110 79120
L70080 79150
L70110 79180
L70140 79150
L70110 79120
L70110 79180
" />
<path d="M70640 79680
L70590 79710
L70470 79710
L70420 79680
L70390 79660
L70360 79600
L70360 79430
L70390 79370
L70420 79350
L70470 79320
L70590 79320
L70640 79350
" />
<path d="M71150 79710
L71150 79400
L71130 79350
L71070 79320
L70960 79320
L70900 79350
" />
<path d="M71150 79680
L71100 79710
L70960 79710
L70900 79680
L70870 79630
L70870 79570
L70900 79520
L70960 79490
L71100 79490
L71150 79460
" />
<path d="M71680 79710
L71680 79120
" />
<path d="M71680 79680
L71630 79710
L71510 79710
L71460 79680
L71430 79660
L71400 79600
L71400 79430
L71430 79370
L71460 79350
L71510 79320
L71630 79320
L71680 79350
" />
<path d="M72580 79940
L72550 79910
L72490 79820
L72470 79770
L72440 79680
L72410 79540
L72410 79430
L72440 79290
L72470 79210
L72490 79150
L72550 79070
L72580 79040
" />
<path d="M72770 79180
L72800 79150
L72860 79120
L73000 79120
L73050 79150
L73080 79180
L73110 79230
L73110 79290
L73080 79370
L72740 79710
L73110 79710
" />
<path d="M73470 79120
L73530 79120
L73590 79150
L73610 79180
L73640 79230
L73670 79350
L73670 79490
L73640 79600
L73610 79660
L73590 79680
L73530 79710
L73470 79710
L73420 79680
L73390 79660
L73360 79600
L73330 79490
L73330 79350
L73360 79230
L73390 79180
L73420 79150
L73470 79120
" />
<path d="M74230 79710
L73890 79710
" />
<path d="M74060 79710
L74060 79120
L74000 79210
L73950 79260
L73890 79290
" />
<path d="M74730 79320
L74730 79710
" />
<path d="M74590 79090
L74450 79520
L74820 79520
" />
<path d="M75040 79490
L75490 79490
" />
<path d="M75770 79320
L75770 79820
L75740 79880
L75690 79910
L75660 79910
" />
<path d="M75770 79120
L75740 79150
L75770 79180
L75800 79150
L75770 79120
L75770 79180
" />
<path d="M76300 79320
L76300 79710
" />
<path d="M76050 79320
L76050 79630
L76080 79680
L76130 79710
L76220 79710
L76280 79680
L76300 79660
" />
<path d="M76660 79710
L76610 79680
L76580 79630
L76580 79120
" />
<path d="M76890 79490
L77340 79490
" />
<path d="M77930 79710
L77590 79710
" />
<path d="M77760 79710
L77760 79120
L77700 79210
L77650 79260
L77590 79290
" />
<path d="M78430 79120
L78320 79120
L78260 79150
L78240 79180
L78180 79260
L78150 79370
L78150 79600
L78180 79660
L78210 79680
L78260 79710
L78380 79710
L78430 79680
L78460 79660
L78490 79600
L78490 79460
L78460 79400
L78430 79370
L78380 79350
L78260 79350
L78210 79370
L78180 79400
L78150 79460
" />
<path d="M79390 79400
L79470 79430
L79500 79460
L79530 79520
L79530 79600
L79500 79660
L79470 79680
L79420 79710
L79190 79710
L79190 79120
L79390 79120
L79440 79150
L79470 79180
L79500 79230
L79500 79290
L79470 79350
L79440 79370
L79390 79400
L79190 79400
" />
<path d="M79720 79120
L80120 79120
L79720 79710
L80120 79710
" />
<path d="M80680 79710
L80480 79430
" />
<path d="M80340 79710
L80340 79120
L80570 79120
L80620 79150
L80650 79180
L80680 79230
L80680 79320
L80650 79370
L80620 79400
L80570 79430
L80340 79430
" />
<path d="M81630 79320
L81630 79710
" />
<path d="M81380 79320
L81380 79630
L81410 79680
L81460 79710
L81550 79710
L81610 79680
L81630 79660
" />
<path d="M81910 79320
L81910 79710
" />
<path d="M81910 79370
L81940 79350
L81990 79320
L82080 79320
L82140 79350
L82160 79400
L82160 79710
" />
<path d="M82440 79710
L82440 79120
" />
<path d="M82500 79490
L82670 79710
" />
<path d="M82670 79320
L82440 79540
" />
<path d="M82920 79320
L82920 79710
" />
<path d="M82920 79370
L82950 79350
L83000 79320
L83090 79320
L83150 79350
L83170 79400
L83170 79710
" />
<path d="M83530 79710
L83480 79680
L83450 79660
L83420 79600
L83420 79430
L83450 79370
L83480 79350
L83530 79320
L83620 79320
L83680 79350
L83700 79370
L83730 79430
L83730 79600
L83700 79660
L83680 79680
L83620 79710
L83530 79710
" />
<path d="M83920 79320
L84040 79710
L84150 79430
L84260 79710
L84370 79320
" />
<path d="M84600 79320
L84600 79710
" />
<path d="M84600 79370
L84630 79350
L84680 79320
L84770 79320
L84830 79350
L84850 79400
L84850 79710
" />
<path d="M85070 79940
L85100 79910
L85160 79820
L85190 79770
L85210 79680
L85240 79540
L85240 79430
L85210 79290
L85190 79210
L85160 79150
L85100 79070
L85070 79040
" />
<path d="M85520 79490
L85970 79490
" />
<path d="M86250 79320
L86250 79910
" />
<path d="M86250 79350
L86310 79320
L86420 79320
L86480 79350
L86500 79370
L86530 79430
L86530 79600
L86500 79660
L86480 79680
L86420 79710
L86310 79710
L86250 79680
" />
<path d="M86780 79710
L86780 79320
" />
<path d="M86780 79430
L86810 79370
L86840 79350
L86890 79320
L86950 79320
" />
<path d="M87230 79710
L87180 79680
L87150 79660
L87120 79600
L87120 79430
L87150 79370
L87180 79350
L87230 79320
L87320 79320
L87380 79350
L87400 79370
L87430 79430
L87430 79600
L87400 79660
L87380 79680
L87320 79710
L87230 79710
" />
<path d="M87930 79710
L87930 79120
" />
<path d="M87930 79680
L87880 79710
L87760 79710
L87710 79680
L87680 79660
L87650 79600
L87650 79430
L87680 79370
L87710 79350
L87760 79320
L87880 79320
L87930 79350
" />
<path d="M88460 79320
L88460 79710
" />
<path d="M88210 79320
L88210 79630
L88240 79680
L88290 79710
L88380 79710
L88440 79680
L88460 79660
" />
<path d="M88990 79680
L88940 79710
L88820 79710
L88770 79680
L88740 79660
L88710 79600
L88710 79430
L88740 79370
L88770 79350
L88820 79320
L88940 79320
L88990 79350
" />
<path d="M89170 79320
L89390 79320
" />
<path d="M89250 79120
L89250 79630
L89280 79680
L89330 79710
L89390 79710
" />
</g>
<g style="fill:#000000; fill-opacity:0.0; 
stroke:#000000; stroke-width:100; stroke-opacity:1; 
stroke-linecap:round; stroke-linejoin:round;">
</g>
<g style="fill:#000000; fill-opacity:0.0; 
stroke:#000000; stroke-width:60; stroke-opacity:1; 
stroke-linecap:round; stroke-linejoin:round;">
<path d="M62760 77720
L105280 77720
" />
</g>
<g style="fill:#000000; fill-opacity:0.0; 
stroke:#000000; stroke-width:100; stroke-opacity:1; 
stroke-linecap:round; stroke-linejoin:round;">
</g>
<g style="fill:#000000; fill-opacity:0.0; 
stroke:#000000; stroke-width:120; stroke-opacity:1; 
stroke-linecap:round; stroke-linejoin:round;">
<path d="M97090 78610
L96890 78330
" />
<path d="M96750 78610
L96750 78020
L96980 78020
L97030 78050
L97060 78080
L97090 78130
L97090 78220
L97060 78270
L97030 78300
L96980 78330
L96750 78330
" />
<path d="M97570 78580
L97510 78610
L97400 78610
L97340 78580
L97310 78530
L97310 78300
L97340 78250
L97400 78220
L97510 78220
L97570 78250
L97590 78300
L97590 78360
L97310 78420
" />
<path d="M97790 78220
L97930 78610
L98080 78220
" />
<path d="M98300 78560
L98330 78580
L98300 78610
L98270 78580
L98300 78560
L98300 78610
" />
<path d="M98300 78250
L98330 78270
L98300 78300
L98270 78270
L98300 78250
L98300 78300
" />
<path d="M99000 78440
L99280 78440
" />
<path d="M98950 78610
L99140 78020
L99340 78610
" />
</g>
<g style="fill:#000000; fill-opacity:0.0; 
stroke:#000000; stroke-width:100; stroke-opacity:1; 
stroke-linecap:round; stroke-linejoin:round;">
</g>
<g style="fill:#000000; fill-opacity:0.0; 
stroke:#000000; stroke-width:60; stroke-opacity:1; 
stroke-linecap:round; stroke-linejoin:round;">
<path d="M63260 78580
L63350 78610
L63490 78610
L63540 78580
L63570 78560
L63600 78500
L63600 78440
L63570 78390
L63540 78360
L63490 78330
L63370 78300
L63320 78270
L63290 78250
L63260 78190
L63260 78130
L63290 78080
L63320 78050
L63370 78020
L63520 78020
L63600 78050
" />
<path d="M63850 78610
L63850 78220
" />
<path d="M63850 78020
L63820 78050
L63850 78080
L63880 78050
L63850 78020
L63850 78080
" />
<path d="M64070 78220
L64380 78220
L64070 78610
L64380 78610
" />
<path d="M64840 78580
L64780 78610
L64670 78610
L64610 78580
L64580 78530
L64580 78300
L64610 78250
L64670 78220
L64780 78220
L64840 78250
L64860 78300
L64860 78360
L64580 78420
" />
<path d="M65120 78560
L65150 78580
L65120 78610
L65090 78580
L65120 78560
L65120 78610
" />
<path d="M65120 78250
L65150 78270
L65120 78300
L65090 78270
L65120 78250
L65120 78300
" />
<path d="M65820 78440
L66100 78440
" />
<path d="M65770 78610
L65960 78020
L66160 78610
" />
</g>
<g style="fill:#000000; fill-opacity:0.0; 
stroke:#000000; stroke-width:100; stroke-opacity:1; 
stroke-linecap:round; stroke-linejoin:round;">
</g>
<g style="fill:#000000; fill-opacity:0.0; 
stroke:#000000; stroke-width:60; stroke-opacity:1; 
stroke-linecap:round; stroke-linejoin:round;">
<path d="M96750 79710
L96750 79120
" />
<path d="M97280 79710
L97280 79120
" />
<path d="M97280 79680
L97230 79710
L97110 79710
L97060 79680
L97030 79660
L97000 79600
L97000 79430
L97030 79370
L97060 79350
L97110 79320
L97230 79320
L97280 79350
" />
<path d="M97560 79660
L97590 79680
L97560 79710
L97530 79680
L97560 79660
L97560 79710
" />
<path d="M97560 79350
L97590 79370
L97560 79400
L97530 79370
L97560 79350
L97560 79400
" />
<path d="M98600 79710
L98260 79710
" />
<path d="M98430 79710
L98430 79120
L98370 79210
L98320 79260
L98260 79290
" />
<path d="M99270 79090
L98770 79850
" />
<path d="M99780 79710
L99440 79710
" />
<path d="M99610 79710
L99610 79120
L99550 79210
L99500 79260
L99440 79290
" />
</g>
<g style="fill:#000000; fill-opacity:0.0; 
stroke:#000000; stroke-width:100; stroke-opacity:1; 
stroke-linecap:round; stroke-linejoin:round;">
</g>
<g style="fill:#000000; fill-opacity:0.0; 
stroke:#000000; stroke-width:60; stroke-opacity:1; 
stroke-linecap:round; stroke-linejoin:round;">
<path d="M62760 76140
L105280 76140
" />
</g>
<g style="fill:#000000; fill-opacity:0.0; 
stroke:#000000; stroke-width:100; stroke-opacity:1; 
stroke-linecap:round; stroke-linejoin:round;">
</g>
<g style="fill:#000000; fill-opacity:0.0; 
stroke:#000000; stroke-width:160; stroke-opacity:1; 
stroke-linecap:round; stroke-linejoin:round;">
<path d="M63330 76410
L63780 76410
" />
<path d="M63460 77200
L63550 76410
" />
<path d="M63950 77200
L64010 76680
" />
<path d="M64040 76410
L64000 76450
L64030 76490
L64080 76450
L64040 76410
L64030 76490
" />
<path d="M64280 76680
L64580 76680
" />
<path d="M64420 76410
L64340 77090
L64370 77160
L64440 77200
L64520 77200
" />
<path d="M64890 77200
L64820 77160
L64790 77090
L64870 76410
" />
<path d="M65490 77160
L65410 77200
L65260 77200
L65190 77160
L65160 77090
L65200 76790
L65250 76710
L65320 76680
L65470 76680
L65550 76710
L65580 76790
L65570 76860
L65180 76940
" />
<path d="M65870 77130
L65910 77160
L65870 77200
L65830 77160
L65870 77130
L65870 77200
" />
<path d="M65930 76710
L65960 76750
L65920 76790
L65880 76750
L65930 76710
L65920 76790
" />
<path d="M66810 77160
L66920 77200
L67110 77200
L67190 77160
L67220 77130
L67270 77050
L67280 76980
L67250 76900
L67230 76860
L67150 76830
L67010 76790
L66940 76750
L66910 76710
L66880 76640
L66890 76560
L66930 76490
L66980 76450
L67050 76410
L67240 76410
L67350 76450
" />
<path d="M67710 77200
L67640 77160
L67600 77130
L67570 77050
L67600 76830
L67650 76750
L67700 76710
L67770 76680
L67880 76680
L67960 76710
L67990 76750
L68010 76830
L67980 77050
L67940 77130
L67900 77160
L67820 77200
L67710 77200
" />
<path d="M68370 76680
L68310 77200
" />
<path d="M68360 76750
L68410 76710
L68480 76680
L68590 76680
L68670 76710
L68700 76790
L68650 77200
" />
<path d="M69360 77200
L69410 76790
L69380 76710
L69300 76680
L69150 76680
L69080 76710
" />
<path d="M69360 77160
L69280 77200
L69090 77200
L69020 77160
L68990 77090
L69000 77010
L69050 76940
L69120 76900
L69310 76900
L69400 76860
" />
<path d="M69730 77200
L69790 76680
" />
<path d="M69770 76830
L69820 76750
L69860 76710
L69940 76680
L70010 76680
" />
<path d="M71270 77200
L71050 76830
" />
<path d="M70820 77200
L70910 76410
L71210 76410
L71280 76450
L71310 76490
L71350 76560
L71330 76680
L71280 76750
L71240 76790
L71160 76830
L70860 76830
" />
<path d="M71610 77200
L71670 76680
" />
<path d="M71700 76410
L71660 76450
L71690 76490
L71740 76450
L71700 76410
L71690 76490
" />
<path d="M71950 77160
L72030 77200
L72180 77200
L72250 77160
L72300 77090
L72300 77050
L72270 76980
L72210 76940
L72090 76940
L72020 76900
L71990 76830
L72000 76790
L72050 76710
L72120 76680
L72240 76680
L72310 76710
" />
<path d="M72930 77160
L72850 77200
L72700 77200
L72630 77160
L72600 77090
L72640 76790
L72690 76710
L72760 76680
L72910 76680
L72990 76710
L73020 76790
L73010 76860
L72620 76940
" />
<path d="M73310 77200
L73370 76680
" />
<path d="M73350 76830
L73400 76750
L73440 76710
L73520 76680
L73590 76680
" />
</g>
<g style="fill:#000000; fill-opacity:0.0; 
stroke:#000000; stroke-width:100; stroke-opacity:1; 
stroke-linecap:round; stroke-linejoin:round;">
</g>
<g style="fill:#000000; fill-opacity:0.0; 
stroke:#000000; stroke-width:60; stroke-opacity:1; 
stroke-linecap:round; stroke-linejoin:round;">
<path d="M63490 75380
L63290 75380
" />
<path d="M63290 75690
L63290 75100
L63570 75100
" />
<path d="M63800 75690
L63800 75300
" />
<path d="M63800 75100
L63770 75130
L63800 75160
L63830 75130
L63800 75100
L63800 75160
" />
<path d="M64160 75690
L64110 75660
L64080 75610
L64080 75100
" />
<path d="M64620 75660
L64560 75690
L64450 75690
L64390 75660
L64360 75610
L64360 75380
L64390 75330
L64450 75300
L64560 75300
L64620 75330
L64640 75380
L64640 75440
L64360 75500
" />
<path d="M64900 75640
L64930 75660
L64900 75690
L64870 75660
L64900 75640
L64900 75690
" />
<path d="M64900 75330
L64930 75350
L64900 75380
L64870 75350
L64900 75330
L64900 75380
" />
<path d="M65600 75660
L65660 75690
L65770 75690
L65830 75660
L65860 75610
L65860 75580
L65830 75520
L65770 75500
L65690 75500
L65630 75470
L65600 75410
L65600 75380
L65630 75330
L65690 75300
L65770 75300
L65830 75330
" />
<path d="M66190 75690
L66140 75660
L66110 75640
L66080 75580
L66080 75410
L66110 75350
L66140 75330
L66190 75300
L66280 75300
L66340 75330
L66360 75350
L66390 75410
L66390 75580
L66360 75640
L66340 75660
L66280 75690
L66190 75690
" />
<path d="M66640 75300
L66640 75690
" />
<path d="M66640 75350
L66670 75330
L66720 75300
L66810 75300
L66870 75330
L66890 75380
L66890 75690
" />
<path d="M67420 75690
L67420 75380
L67400 75330
L67340 75300
L67230 75300
L67170 75330
" />
<path d="M67420 75660
L67370 75690
L67230 75690
L67170 75660
L67140 75610
L67140 75550
L67170 75500
L67230 75470
L67370 75470
L67420 75440
" />
<path d="M67700 75690
L67700 75300
" />
<path d="M67700 75410
L67730 75350
L67760 75330
L67810 75300
L67870 75300
" />
<path d="M67930 75750
L68380 75750
" />
<path d="M68520 75690
L68520 75300
" />
<path d="M68520 75410
L68550 75350
L68580 75330
L68630 75300
L68690 75300
" />
<path d="M68890 75690
L68890 75300
" />
<path d="M68890 75100
L68860 75130
L68890 75160
L68920 75130
L68890 75100
L68890 75160
" />
<path d="M69140 75660
L69200 75690
L69310 75690
L69370 75660
L69400 75610
L69400 75580
L69370 75520
L69310 75500
L69230 75500
L69170 75470
L69140 75410
L69140 75380
L69170 75330
L69230 75300
L69310 75300
L69370 75330
" />
<path d="M69880 75660
L69820 75690
L69710 75690
L69650 75660
L69620 75610
L69620 75380
L69650 75330
L69710 75300
L69820 75300
L69880 75330
L69900 75380
L69900 75440
L69620 75500
" />
<path d="M70160 75690
L70160 75300
" />
<path d="M70160 75410
L70190 75350
L70220 75330
L70270 75300
L70330 75300
" />
<path d="M70530 75640
L70560 75660
L70530 75690
L70500 75660
L70530 75640
L70530 75690
" />
<path d="M70780 75660
L70840 75690
L70950 75690
L71010 75660
L71040 75610
L71040 75580
L71010 75520
L70950 75500
L70870 75500
L70810 75470
L70780 75410
L70780 75380
L70810 75330
L70870 75300
L70950 75300
L71010 75330
" />
<path d="M71540 75660
L71490 75690
L71370 75690
L71320 75660
L71290 75640
L71260 75580
L71260 75410
L71290 75350
L71320 75330
L71370 75300
L71490 75300
L71540 75330
" />
<path d="M71800 75690
L71800 75100
" />
<path d="M72050 75690
L72050 75380
L72030 75330
L71970 75300
L71880 75300
L71830 75330
L71800 75350
" />
</g>
<g style="fill:#000000; fill-opacity:0.0; 
stroke:#000000; stroke-width:100; stroke-opacity:1; 
stroke-linecap:round; stroke-linejoin:round;">
</g>
<g style="fill:#000000; fill-opacity:0.0; 
stroke:#000000; stroke-width:60; stroke-opacity:1; 
stroke-linecap:round; stroke-linejoin:round;">
<path d="M62760 73780
L105280 73780
" />
</g>
<g style="fill:#000000; fill-opacity:0.0; 
stroke:#000000; stroke-width:100; stroke-opacity:1; 
stroke-linecap:round; stroke-linejoin:round;">
</g>
<g style="fill:#000000; fill-opacity:0.0; 
stroke:#000000; stroke-width:60; stroke-opacity:1; 
stroke-linecap:round; stroke-linejoin:round;">
<path d="M63260 74600
L63350 74630
L63490 74630
L63540 74600
L63570 74580
L63600 74520
L63600 74460
L63570 74410
L63540 74380
L63490 74350
L63370 74320
L63320 74290
L63290 74270
L63260 74210
L63260 74150
L63290 74100
L63320 74070
L63370 74040
L63520 74040
L63600 74070
" />
<path d="M63850 74630
L63850 74040
" />
<path d="M64100 74630
L64100 74320
L64080 74270
L64020 74240
L63930 74240
L63880 74270
L63850 74290
" />
<path d="M64610 74600
L64550 74630
L64440 74630
L64380 74600
L64350 74550
L64350 74320
L64380 74270
L64440 74240
L64550 74240
L64610 74270
L64630 74320
L64630 74380
L64350 74440
" />
<path d="M65120 74600
L65060 74630
L64950 74630
L64890 74600
L64860 74550
L64860 74320
L64890 74270
L64950 74240
L65060 74240
L65120 74270
L65140 74320
L65140 74380
L64860 74440
" />
<path d="M65320 74240
L65540 74240
" />
<path d="M65400 74040
L65400 74550
L65430 74600
L65480 74630
L65540 74630
" />
<path d="M65740 74580
L65770 74600
L65740 74630
L65710 74600
L65740 74580
L65740 74630
" />
<path d="M65740 74270
L65770 74290
L65740 74320
L65710 74290
L65740 74270
L65740 74320
" />
<path d="M66890 74010
L66390 74770
" />
</g>
<g style="fill:#000000; fill-opacity:0.0; 
stroke:#000000; stroke-width:100; stroke-opacity:1; 
stroke-linecap:round; stroke-linejoin:round;">
</g>
<g style="fill:#000000; fill-opacity:0.0; 
stroke:#000000; stroke-width:60; stroke-opacity:1; 
stroke-linecap:round; stroke-linejoin:round;">
<path d="M70630 77720
L70630 78900
" />
</g>
<g style="fill:#000000; fill-opacity:0.0; 
stroke:#000000; stroke-width:100; stroke-opacity:1; 
stroke-linecap:round; stroke-linejoin:round;">
</g>
<g style="fill:#000000; fill-opacity:0.0; 
stroke:#000000; stroke-width:60; stroke-opacity:1; 
stroke-linecap:round; stroke-linejoin:round;">
<path d="M95830 77720
L95830 80280
" />
</g>
<g style="fill:#000000; fill-opacity:0.0; 
stroke:#000000; stroke-width:0; stroke-opacity:1; 
stroke-linecap:round; stroke-linejoin:round;">
</g>
<g style="fill:#000000; fill-opacity:0.0; 
stroke:#000000; stroke-width:60; stroke-opacity:1; 
stroke-linecap:round; stroke-linejoin:round;">
<rect x="32000" y="34500" width="4000" height="4000" rx="0" />
<path d="M36000 38000
L38000 38000
" />
<path d="M34220 37730
L34380 38230
L34550 37730
" />
<path d="M35000 38180
L34980 38200
L34910 38230
L34860 38230
L34790 38200
L34740 38150
L34720 38110
L34700 38010
L34700 37940
L34720 37850
L34740 37800
L34790 37750
L34860 37730
L34910 37730
L34980 37750
L35000 37770
" />
<path d="M35500 38180
L35480 38200
L35410 38230
L35360 38230
L35290 38200
L35240 38150
L35220 38110
L35200 38010
L35200 37940
L35220 37850
L35240 37800
L35290 37750
L35360 37730
L35410 37730
L35480 37750
L35500 37770
" />
<path d="M37140 37880
L36860 37880
" />
<path d="M37000 37880
L37000 37380
L36950 37450
L36900 37500
L36860 37520
" />
<path d="M36000 37000
L38000 37000
" />
<path d="M32580 36730
L32860 36730
" />
<path d="M32720 37230
L32720 36730
" />
<path d="M33310 37230
L33150 36990
" />
<path d="M33030 37230
L33030 36730
L33220 36730
L33270 36750
L33290 36770
L33310 36820
L33310 36890
L33290 36940
L33270 36960
L33220 36990
L33030 36990
" />
<path d="M33530 37230
L33530 36730
" />
<path d="M34030 36750
L33980 36730
L33910 36730
L33840 36750
L33790 36800
L33770 36850
L33750 36940
L33750 37010
L33770 37110
L33790 37150
L33840 37200
L33910 37230
L33960 37230
L34030 37200
L34050 37180
L34050 37010
L33960 37010
" />
<path d="M34530 36750
L34480 36730
L34410 36730
L34340 36750
L34290 36800
L34270 36850
L34250 36940
L34250 37010
L34270 37110
L34290 37150
L34340 37200
L34410 37230
L34460 37230
L34530 37200
L34550 37180
L34550 37010
L34460 37010
" />
<path d="M34770 36960
L34940 36960
" />
<path d="M35010 37230
L34770 37230
L34770 36730
L35010 36730
" />
<path d="M35500 37230
L35340 36990
" />
<path d="M35220 37230
L35220 36730
L35410 36730
L35460 36750
L35480 36770
L35500 36820
L35500 36890
L35480 36940
L35460 36960
L35410 36990
L35220 36990
" />
<path d="M36860 36420
L36880 36400
L36930 36380
L37050 36380
L37090 36400
L37120 36420
L37140 36470
L37140 36520
L37120 36590
L36830 36880
L37140 36880
" />
<path d="M36000 36000
L38000 36000
" />
<path d="M33730 35960
L33900 35960
" />
<path d="M33970 36230
L33730 36230
L33730 35730
L33970 35730
" />
<path d="M34460 36180
L34440 36200
L34370 36230
L34320 36230
L34250 36200
L34200 36150
L34180 36110
L34160 36010
L34160 35940
L34180 35850
L34200 35800
L34250 35750
L34320 35730
L34370 35730
L34440 35750
L34460 35770
" />
<path d="M34680 36230
L34680 35730
" />
<path d="M34680 35960
L34960 35960
" />
<path d="M34960 36230
L34960 35730
" />
<path d="M35290 35730
L35390 35730
L35440 35750
L35480 35800
L35510 35890
L35510 36060
L35480 36150
L35440 36200
L35390 36230
L35290 36230
L35250 36200
L35200 36150
L35180 36060
L35180 35890
L35200 35800
L35250 35750
L35290 35730
" />
<path d="M36830 35380
L37140 35380
L36970 35570
L37050 35570
L37090 35590
L37120 35610
L37140 35660
L37140 35780
L37120 35830
L37090 35850
L37050 35880
L36900 35880
L36860 35850
L36830 35830
" />
<path d="M36000 35000
L38000 35000
" />
<path d="M34460 34750
L34410 34730
L34340 34730
L34270 34750
L34220 34800
L34200 34850
L34180 34940
L34180 35010
L34200 35110
L34220 35150
L34270 35200
L34340 35230
L34390 35230
L34460 35200
L34480 35180
L34480 35010
L34390 35010
" />
<path d="M34700 35230
L34700 34730
L34980 35230
L34980 34730
" />
<path d="M35220 35230
L35220 34730
L35340 34730
L35410 34750
L35460 34800
L35480 34850
L35500 34940
L35500 35010
L35480 35110
L35460 35150
L35410 35200
L35340 35230
L35220 35230
" />
<path d="M37090 34540
L37090 34880
" />
<path d="M36970 34350
L36860 34710
L37160 34710
" />
<path d="M33620 34200
L33620 33700
L33900 34200
L33900 33700
" />
<path d="M34400 34200
L34120 34200
" />
<path d="M34260 34200
L34260 33700
L34210 33770
L34160 33820
L34120 33840
" />
<path d="M31280 39170
L31350 39200
L31470 39200
L31510 39170
L31540 39150
L31560 39100
L31560 39050
L31540 39010
L31510 38980
L31470 38960
L31370 38930
L31320 38910
L31300 38890
L31280 38840
L31280 38790
L31300 38740
L31320 38720
L31370 38700
L31490 38700
L31560 38720
" />
<path d="M31870 38700
L31970 38700
L32020 38720
L32060 38770
L32090 38860
L32090 39030
L32060 39120
L32020 39170
L31970 39200
L31870 39200
L31830 39170
L31780 39120
L31760 39030
L31760 38860
L31780 38770
L31830 38720
L31870 38700
" />
<path d="M32300 39200
L32300 38700
L32580 39200
L32580 38700
" />
<path d="M32800 39050
L33030 39050
" />
<path d="M32750 39200
L32910 38700
L33080 39200
" />
<path d="M33530 39200
L33370 38960
" />
<path d="M33250 39200
L33250 38700
L33440 38700
L33490 38720
L33510 38740
L33530 38790
L33530 38860
L33510 38910
L33490 38930
L33440 38960
L33250 38960
" />
<path d="M33630 39240
L34010 39240
" />
<path d="M34130 39200
L34130 38700
L34300 39050
L34460 38700
L34460 39200
" />
<path d="M34680 39050
L34910 39050
" />
<path d="M34630 39200
L34790 38700
L34960 39200
" />
<path d="M35110 39170
L35180 39200
L35300 39200
L35340 39170
L35370 39150
L35390 39100
L35390 39050
L35370 39010
L35340 38980
L35300 38960
L35200 38930
L35150 38910
L35130 38890
L35110 38840
L35110 38790
L35130 38740
L35150 38720
L35200 38700
L35320 38700
L35390 38720
" />
<path d="M35540 38700
L35820 38700
" />
<path d="M35680 39200
L35680 38700
" />
<path d="M35990 38930
L36160 38930
" />
<path d="M36230 39200
L35990 39200
L35990 38700
L36230 38700
" />
<path d="M36720 39200
L36560 38960
" />
<path d="M36440 39200
L36440 38700
L36630 38700
L36680 38720
L36700 38740
L36720 38790
L36720 38860
L36700 38910
L36680 38930
L36630 38960
L36440 38960
" />
</g>
<g style="fill:#000000; fill-opacity:0.0; 
stroke:#000000; stroke-width:0; stroke-opacity:1; 
stroke-linecap:round; stroke-linejoin:round;">
</g>
<g style="fill:#000000; fill-opacity:0.0; 
stroke:#000000; stroke-width:60; stroke-opacity:1; 
stroke-linecap:round; stroke-linejoin:round;">
<rect x="44000" y="34500" width="4000" height="4000" rx="0" />
<path d="M44000 38000
L42000 38000
" />
<path d="M44450 37730
L44610 38230
L44780 37730
" />
<path d="M45230 38180
L45210 38200
L45140 38230
L45090 38230
L45020 38200
L44970 38150
L44950 38110
L44930 38010
L44930 37940
L44950 37850
L44970 37800
L45020 37750
L45090 37730
L45140 37730
L45210 37750
L45230 37770
" />
<path d="M45730 38180
L45710 38200
L45640 38230
L45590 38230
L45520 38200
L45470 38150
L45450 38110
L45430 38010
L45430 37940
L45450 37850
L45470 37800
L45520 37750
L45590 37730
L45640 37730
L45710 37750
L45730 37770
" />
<path d="M43140 37880
L42860 37880
" />
<path d="M43000 37880
L43000 37380
L42950 37450
L42900 37500
L42860 37520
" />
<path d="M44000 37000
L42000 37000
" />
<path d="M44450 36730
L44730 36730
" />
<path d="M44590 37230
L44590 36730
" />
<path d="M45180 37230
L45020 36990
" />
<path d="M44900 37230
L44900 36730
L45090 36730
L45140 36750
L45160 36770
L45180 36820
L45180 36890
L45160 36940
L45140 36960
L45090 36990
L44900 36990
" />
<path d="M45400 37230
L45400 36730
" />
<path d="M45900 36750
L45850 36730
L45780 36730
L45710 36750
L45660 36800
L45640 36850
L45620 36940
L45620 37010
L45640 37110
L45660 37150
L45710 37200
L45780 37230
L45830 37230
L45900 37200
L45920 37180
L45920 37010
L45830 37010
" />
<path d="M46400 36750
L46350 36730
L46280 36730
L46210 36750
L46160 36800
L46140 36850
L46120 36940
L46120 37010
L46140 37110
L46160 37150
L46210 37200
L46280 37230
L46330 37230
L46400 37200
L46420 37180
L46420 37010
L46330 37010
" />
<path d="M46640 36960
L46810 36960
" />
<path d="M46880 37230
L46640 37230
L46640 36730
L46880 36730
" />
<path d="M47370 37230
L47210 36990
" />
<path d="M47090 37230
L47090 36730
L47280 36730
L47330 36750
L47350 36770
L47370 36820
L47370 36890
L47350 36940
L47330 36960
L47280 36990
L47090 36990
" />
<path d="M42860 36420
L42880 36400
L42930 36380
L43050 36380
L43090 36400
L43120 36420
L43140 36470
L43140 36520
L43120 36590
L42830 36880
L43140 36880
" />
<path d="M44000 36000
L42000 36000
" />
<path d="M44520 35960
L44690 35960
" />
<path d="M44760 36230
L44520 36230
L44520 35730
L44760 35730
" />
<path d="M45250 36180
L45230 36200
L45160 36230
L45110 36230
L45040 36200
L44990 36150
L44970 36110
L44950 36010
L44950 35940
L44970 35850
L44990 35800
L45040 35750
L45110 35730
L45160 35730
L45230 35750
L45250 35770
" />
<path d="M45470 36230
L45470 35730
" />
<path d="M45470 35960
L45750 35960
" />
<path d="M45750 36230
L45750 35730
" />
<path d="M46080 35730
L46180 35730
L46230 35750
L46270 35800
L46300 35890
L46300 36060
L46270 36150
L46230 36200
L46180 36230
L46080 36230
L46040 36200
L45990 36150
L45970 36060
L45970 35890
L45990 35800
L46040 35750
L46080 35730
" />
<path d="M42830 35380
L43140 35380
L42970 35570
L43050 35570
L43090 35590
L43120 35610
L43140 35660
L43140 35780
L43120 35830
L43090 35850
L43050 35880
L42900 35880
L42860 35850
L42830 35830
" />
<path d="M44000 35000
L42000 35000
" />
<path d="M44780 34750
L44730 34730
L44660 34730
L44590 34750
L44540 34800
L44520 34850
L44500 34940
L44500 35010
L44520 35110
L44540 35150
L44590 35200
L44660 35230
L44710 35230
L44780 35200
L44800 35180
L44800 35010
L44710 35010
" />
<path d="M45020 35230
L45020 34730
L45300 35230
L45300 34730
" />
<path d="M45540 35230
L45540 34730
L45660 34730
L45730 34750
L45780 34800
L45800 34850
L45820 34940
L45820 35010
L45800 35110
L45780 35150
L45730 35200
L45660 35230
L45540 35230
" />
<path d="M43090 34540
L43090 34880
" />
<path d="M42970 34350
L42860 34710
L43160 34710
" />
<path d="M45620 34200
L45620 33700
L45900 34200
L45900 33700
" />
<path d="M46120 33740
L46140 33720
L46190 33700
L46310 33700
L46350 33720
L46380 33740
L46400 33790
L46400 33840
L46380 33910
L46090 34200
L46400 34200
" />
<path d="M43590 39170
L43660 39200
L43780 39200
L43820 39170
L43850 39150
L43870 39100
L43870 39050
L43850 39010
L43820 38980
L43780 38960
L43680 38930
L43630 38910
L43610 38890
L43590 38840
L43590 38790
L43610 38740
L43630 38720
L43680 38700
L43800 38700
L43870 38720
" />
<path d="M44180 38700
L44280 38700
L44330 38720
L44370 38770
L44400 38860
L44400 39030
L44370 39120
L44330 39170
L44280 39200
L44180 39200
L44140 39170
L44090 39120
L44070 39030
L44070 38860
L44090 38770
L44140 38720
L44180 38700
" />
<path d="M44610 39200
L44610 38700
L44890 39200
L44890 38700
" />
<path d="M45110 39050
L45340 39050
" />
<path d="M45060 39200
L45220 38700
L45390 39200
" />
<path d="M45840 39200
L45680 38960
" />
<path d="M45560 39200
L45560 38700
L45750 38700
L45800 38720
L45820 38740
L45840 38790
L45840 38860
L45820 38910
L45800 38930
L45750 38960
L45560 38960
" />
<path d="M45940 39240
L46320 39240
" />
<path d="M46420 39170
L46490 39200
L46610 39200
L46650 39170
L46680 39150
L46700 39100
L46700 39050
L46680 39010
L46650 38980
L46610 38960
L46510 38930
L46460 38910
L46440 38890
L46420 38840
L46420 38790
L46440 38740
L46460 38720
L46510 38700
L46630 38700
L46700 38720
" />
<path d="M47160 39200
L46920 39200
L46920 38700
" />
<path d="M47300 39050
L47530 39050
" />
<path d="M47250 39200
L47410 38700
L47580 39200
" />
<path d="M47680 38700
L47840 39200
L48010 38700
" />
<path d="M48180 38930
L48350 38930
" />
<path d="M48420 39200
L48180 39200
L48180 38700
L48420 38700
" />
<path d="M38000 35000
L42000 35000
" />
<path d="M38000 36000
L42000 36000
" />
<path d="M38000 37000
L42000 37000
" />
<path d="M38000 38000
L42000 38000
" />
<path d="M39380 34400
L39330 34380
L39260 34380
L39190 34400
L39140 34450
L39120 34500
L39100 34590
L39100 34660
L39120 34760
L39140 34800
L39190 34850
L39260 34880
L39310 34880
L39380 34850
L39400 34830
L39400 34660
L39310 34660
" />
<path d="M39620 34880
L39620 34380
L39900 34880
L39900 34380
" />
<path d="M40140 34880
L40140 34380
L40260 34380
L40330 34400
L40380 34450
L40400 34500
L40420 34590
L40420 34660
L40400 34760
L40380 34800
L40330 34850
L40260 34880
L40140 34880
" />
<path d="M39050 37380
L39210 37880
L39380 37380
" />
<path d="M39830 37830
L39810 37850
L39740 37880
L39690 37880
L39620 37850
L39570 37800
L39550 37760
L39530 37660
L39530 37590
L39550 37500
L39570 37450
L39620 37400
L39690 37380
L39740 37380
L39810 37400
L39830 37420
" />
<path d="M40330 37830
L40310 37850
L40240 37880
L40190 37880
L40120 37850
L40070 37800
L40050 37760
L40030 37660
L40030 37590
L40050 37500
L40070 37450
L40120 37400
L40190 37380
L40240 37380
L40310 37400
L40330 37420
" />
</g>
<g style="fill:#000000; fill-opacity:0.0; 
stroke:#000000; stroke-width:0; stroke-opacity:1; 
stroke-linecap:round; stroke-linejoin:round;">
</g>
<g style="fill:#000000; fill-opacity:0.0; 
stroke:#000000; stroke-width:60; stroke-opacity:1; 
stroke-linecap:round; stroke-linejoin:round;">
<path d="M39390 43730
L39150 43730
L39150 43230
" />
<path d="M39640 43230
L39740 43230
L39790 43250
L39830 43300
L39860 43390
L39860 43560
L39830 43650
L39790 43700
L39740 43730
L39640 43730
L39600 43700
L39550 43650
L39530 43560
L39530 43390
L39550 43300
L39600 43250
L39640 43230
" />
<path d="M40330 43250
L40280 43230
L40210 43230
L40140 43250
L40090 43300
L40070 43350
L40050 43440
L40050 43510
L40070 43610
L40090 43650
L40140 43700
L40210 43730
L40260 43730
L40330 43700
L40350 43680
L40350 43510
L40260 43510
" />
<path d="M40660 43230
L40760 43230
L40810 43250
L40850 43300
L40880 43390
L40880 43560
L40850 43650
L40810 43700
L40760 43730
L40660 43730
L40620 43700
L40570 43650
L40550 43560
L40550 43390
L40570 43300
L40620 43250
L40660 43230
" />
<path d="M39170 42230
L39270 42230
L39320 42250
L39360 42300
L39390 42390
L39390 42560
L39360 42650
L39320 42700
L39270 42730
L39170 42730
L39130 42700
L39080 42650
L39060 42560
L39060 42390
L39080 42300
L39130 42250
L39170 42230
" />
<path d="M39580 42700
L39650 42730
L39770 42730
L39810 42700
L39840 42680
L39860 42630
L39860 42580
L39840 42540
L39810 42510
L39770 42490
L39670 42460
L39620 42440
L39600 42420
L39580 42370
L39580 42320
L39600 42270
L39620 42250
L39670 42230
L39790 42230
L39860 42250
" />
<path d="M40080 42730
L40080 42230
" />
<path d="M40080 42460
L40360 42460
" />
<path d="M40360 42730
L40360 42230
" />
<path d="M40550 42230
L40670 42730
L40770 42370
L40860 42730
L40980 42230
" />
<rect x="38500" y="42000" width="3000" height="2000" rx="0" />
<path d="M38930 41200
L39030 41200
L39080 41220
L39120 41270
L39150 41360
L39150 41530
L39120 41620
L39080 41670
L39030 41700
L38930 41700
L38890 41670
L38840 41620
L38820 41530
L38820 41360
L38840 41270
L38890 41220
L38930 41200
" />
<path d="M39340 41670
L39410 41700
L39530 41700
L39570 41670
L39600 41650
L39620 41600
L39620 41550
L39600 41510
L39570 41480
L39530 41460
L39430 41430
L39380 41410
L39360 41390
L39340 41340
L39340 41290
L39360 41240
L39380 41220
L39430 41200
L39550 41200
L39620 41220
" />
<path d="M39840 41700
L39840 41200
" />
<path d="M39840 41430
L40120 41430
" />
<path d="M40120 41700
L40120 41200
" />
<path d="M40310 41200
L40430 41700
L40530 41340
L40620 41700
L40740 41200
" />
<path d="M41190 41700
L40910 41700
" />
<path d="M41050 41700
L41050 41200
L41000 41270
L40950 41320
L40910 41340
" />
<path d="M39170 44200
L39270 44200
L39320 44220
L39360 44270
L39390 44360
L39390 44530
L39360 44620
L39320 44670
L39270 44700
L39170 44700
L39130 44670
L39080 44620
L39060 44530
L39060 44360
L39080 44270
L39130 44220
L39170 44200
" />
<path d="M39580 44670
L39650 44700
L39770 44700
L39810 44670
L39840 44650
L39860 44600
L39860 44550
L39840 44510
L39810 44480
L39770 44460
L39670 44430
L39620 44410
L39600 44390
L39580 44340
L39580 44290
L39600 44240
L39620 44220
L39670 44200
L39790 44200
L39860 44220
" />
<path d="M40080 44700
L40080 44200
" />
<path d="M40080 44430
L40360 44430
" />
<path d="M40360 44700
L40360 44200
" />
<path d="M40550 44200
L40670 44700
L40770 44340
L40860 44700
L40980 44200
" />
</g> 
</svg>
